<svg xmlns="http://www.w3.org/2000/svg" xmlns:xlink="http://www.w3.org/1999/xlink" viewBox="0 0 113.63 18"><defs><style>.cls-1{fill:url(#linear-gradient);}.cls-2{fill:url(#linear-gradient-2);}</style><linearGradient id="linear-gradient" x1="8.54" y1="4.98" x2="19.35" y2="4.98" gradientUnits="userSpaceOnUse"><stop offset="0" stop-color="#73bd1e"/><stop offset="1" stop-color="#3a5f0f"/></linearGradient><linearGradient id="linear-gradient-2" x1="8.54" y1="6.89" x2="15.47" y2="6.89" xlink:href="#linear-gradient"/></defs><title>logo</title><g id="レイヤー_2" data-name="レイヤー 2"><g id="トップページ"><path d="M110,0H95.63V3.6H110V7.2h-7.2v7.2h-7.2V18h9a1.8,1.8,0,0,0,1.8-1.8V10.8h5.4a1.8,1.8,0,0,0,1.8-1.8V0Z"/><path d="M63,0H48.58V3.6H63V14.4H48.58V18h16.2a1.8,1.8,0,0,0,1.8-1.8h0V0Z"/><rect x="86.38" width="3.6" height="3.6"/><rect x="79.78" width="3.6" height="3.6"/><path d="M88.18,7.2H75.58V0H72V18h3.6V10.8h12.6A1.8,1.8,0,0,0,90,9V7.2Z"/><rect x="39.48" width="3.6" height="3.6"/><rect x="32.88" width="3.6" height="3.6"/><path d="M28.68,7.2V0h-3.6V18h3.6V10.8h12.6A1.8,1.8,0,0,0,43.08,9V7.2H28.68Z"/><path d="M9.48,7.83a1.24,1.24,0,1,0,1.25,1.25A1.24,1.24,0,0,0,9.48,7.83Z"/><path class="cls-1" d="M19.35,10a11.74,11.74,0,0,0-.55-3.61,12,12,0,0,0-1.72-3c-.17-.21-.34-.41-.53-.6s-.35-.34-.53-.49A9.57,9.57,0,0,0,13,.51,11.25,11.25,0,0,0,9.11,0H8.54V2.26H9.94a8.73,8.73,0,0,1,2.27.5,7.15,7.15,0,0,1,2.63,1.69,7.68,7.68,0,0,1,1.71,2.75A5.68,5.68,0,0,1,17,9.1c0,.17,0,.46.07.77V10Z"/><path class="cls-2" d="M13.67,5.56a5.54,5.54,0,0,0-2-1.3,7.36,7.36,0,0,0-2.56-.44H8.54V6.09a5.22,5.22,0,0,1,1.83.35,3.35,3.35,0,0,1,1.39,1,4.24,4.24,0,0,1,.75,1.61,7.46,7.46,0,0,1,.15.87h2.81A8.16,8.16,0,0,0,15,7.73,6.1,6.1,0,0,0,13.67,5.56Z"/><polygon points="15.47 9.96 15.47 9.96 15.47 9.96 15.47 9.96"/><path d="M12.66,10a9.79,9.79,0,0,1,.07,1.18,6.21,6.21,0,0,1-.32,2.12,4,4,0,0,1-.87,1.44,3.2,3.2,0,0,1-1.25.8,4.34,4.34,0,0,1-1.42.24H2.33V2.26H8.54V0H0V18H9.09a6.83,6.83,0,0,0,2.83-.54,5.63,5.63,0,0,0,2-1.49,6.31,6.31,0,0,0,1.2-2.26,10,10,0,0,0,.4-2.88c0-.3,0-.59,0-.87Z"/><path d="M6.71,14.33V6.08H8.54V3.82H3.93V14.33Z"/></g></g></svg>