<svg id="menu_btn_close.svg" xmlns="http://www.w3.org/2000/svg" viewBox="0 0 120 110"><style>.st0{fill:#0b60a8}.st1{fill:#fff}</style><path id="背景" class="st0" d="M0 0h120v110H0z"/><path id="長方形_11_のコピー_3" class="st1" d="M46.4 56.7l28.3-28.3 2.8 2.8-28.2 28.4-2.9-2.9z"/><path id="長方形_11_のコピー_5" class="st1" d="M49.8 28L78 56.2 75.2 59 47 30.8l2.8-2.8z"/><path id="menu" class="st1" d="M36.9 80.2l1.2-6.8c.3-.3.6-.5.9-.7.3-.2.6-.2.9-.2.4 0 .8.1 1 .4.2.4.3.9.1 1.3l-1 5.9h2.2l1-5.9c0-.3.1-.5.3-.8.1-.2.3-.4.4-.6.2-.1.4-.3.6-.3.2-.1.4-.1.6-.1.4 0 .8.1 1.1.4.2.4.3.9.1 1.3l-1 5.9h2.2l1-5.9c.1-.5.1-1 .1-1.5 0-.4-.2-.8-.4-1.1-.2-.3-.5-.5-.9-.7-.4-.2-.9-.2-1.3-.2-.3 0-.6 0-.9.1l-.9.3c-.3.1-.6.3-.8.5-.3.2-.5.5-.7.8-.1-.5-.3-.9-.6-1.3-.4-.3-.9-.5-1.4-.5-.3 0-.5 0-.8.1-.2.1-.5.1-.7.3-.2.1-.4.2-.6.4-.2.2-.4.3-.6.5v-.7c0-.2-.2-.4-.5-.4h-1.4l-1.6 9.2 2.4.3zm19-9.1c-.6.2-1.1.6-1.6 1s-.8.9-1.1 1.4c-.3.6-.5 1.2-.6 1.8-.1.7-.2 1.4 0 2.1.1.6.3 1.1.7 1.5.3.4.8.7 1.3.9.6.2 1.1.3 1.7.3.3 0 .7 0 1-.1.4 0 .7-.1 1.1-.2.4-.1.7-.3 1.1-.5.3-.2.7-.4.9-.7l-.6-.6c0-.1-.1-.1-.1-.2-.1 0-.1-.1-.2-.1-.2 0-.3 0-.4.1l-.6.3c-.2.1-.5.2-.7.3-.3.1-.6.1-.9.1-.6 0-1.2-.2-1.6-.7-.4-.6-.5-1.4-.4-2.1h6c.1 0 .1-.1.2-.1.1-.1.1-.2.1-.3 0-.1.1-.3.1-.4.1-.6.1-1.2 0-1.8-.1-.5-.3-.9-.6-1.3s-.7-.6-1.1-.8c-.5-.2-1-.3-1.6-.3-.8.1-1.5.2-2.1.4zm2.5 1.4c.2.1.4.3.5.5.1.2.2.4.2.7v.8H55c.2-.6.5-1.1 1-1.6.5-.4 1-.6 1.6-.5.3 0 .6 0 .8.1zm8.9 7.7l1.2-6.7c.3-.3.7-.5 1.1-.7.3-.2.7-.3 1.1-.3.4 0 .8.1 1.1.5.2.4.3.9.2 1.3l-1 5.9h2.2l1-5.9c.1-.5.1-.9.1-1.4-.1-.4-.2-.8-.4-1.1-.2-.3-.5-.6-.9-.7-.4-.2-.9-.3-1.3-.3-.3 0-.6 0-.9.1-.3.1-.5.1-.8.3-.3.1-.5.2-.7.4-.2.2-.5.3-.7.5v-.7c0-.2-.2-.4-.5-.4h-1.4l-1.6 9.2h2.2zm11.9-9.3l-1 5.9c-.1.5-.1.9-.1 1.4 0 .4.2.8.4 1.1.2.3.5.6.9.7.4.2.8.3 1.3.3.3 0 .6 0 .9-.1.3-.1.5-.1.8-.3.3-.1.5-.2.7-.4.2-.2.5-.3.7-.5v.7c0 .2.2.4.5.4h1.4l1.6-9.2H85l-1.2 6.7c-.3.3-.7.5-1.1.7-.3.2-.7.3-1.1.3-.4 0-.8-.1-1.1-.5-.2-.4-.3-.9-.2-1.3l1-5.9h-2.1z"/></svg>