<svg id="tel_btn.svg" xmlns="http://www.w3.org/2000/svg" width="120.5" height="110.5" viewBox="0 0 120.5 110.5"><defs><style>.cls-1{fill:#fbf9f6}.cls-2,.cls-3{fill-rule:evenodd}.cls-2{stroke:#d6d6d6;stroke-width:1px;fill:none}.cls-3{fill:#0b60a8}</style></defs><path id="長方形_3_のコピー_4" data-name="長方形 3 のコピー 4" class="cls-1" d="M.5 0h120v110H.5z"/><path id="シェイプ_3_のコピー" data-name="シェイプ 3 のコピー" class="cls-2" d="M2000 0h1v110h-1V0z" transform="translate(-1999.5)"/><path id="TEL" class="cls-3" d="M2040.85 68.138l-.35 1.989h3.93l-1.94 11.025h2.42l1.94-11.025h3.92l.35-1.989h-10.27zm14.8 0l-2.3 13.014h8.21l.34-1.935h-5.77l.65-3.681h4.55l.33-1.863h-4.55l.64-3.609h5.77l.34-1.926h-8.21zm15.12 0h-2.42l-2.3 13.014h7.64l.35-2h-5.21z" transform="translate(-1999.5)"/><path id="_" data-name="" class="cls-3" d="M2072.11 52.237a1 1 0 0 0-.07-.446 3.777 3.777 0 0 0-1.61-1.126c-1.21-.68-2.45-1.339-3.64-2.04a4.345 4.345 0 0 0-1.89-.977c-1.29 0-3.18 3.846-4.33 3.846a4.54 4.54 0 0 1-1.83-.829 21.148 21.148 0 0 1-8.69-8.691 4.537 4.537 0 0 1-.83-1.828c0-1.148 3.85-3.039 3.85-4.335a4.375 4.375 0 0 0-.98-1.891c-.7-1.19-1.36-2.422-2.04-3.634a3.71 3.71 0 0 0-1.13-1.615 1.055 1.055 0 0 0-.44-.064 9.452 9.452 0 0 0-2.96.659 5.593 5.593 0 0 0-2.25 2.593 8.117 8.117 0 0 0-1.08 3.953 16.331 16.331 0 0 0 1.46 5.567 19.581 19.581 0 0 0 1.77 3.719 35.762 35.762 0 0 0 10.2 10.2 19.8 19.8 0 0 0 3.72 1.764 16.329 16.329 0 0 0 5.56 1.466 8.149 8.149 0 0 0 3.96-1.084 5.642 5.642 0 0 0 2.59-2.252 9.422 9.422 0 0 0 .66-2.955z" transform="translate(-1999.5)"/></svg>