<svg xmlns="http://www.w3.org/2000/svg" width="621.99" height="199.68" viewBox="0 0 621.99 199.68"><defs><style>.cls-1{fill:#fff;}.cls-2{fill:#383838;}.cls-3{opacity:0.7;}.cls-4{fill:#26a65b;}</style></defs><title>アセット 1</title><g id="レイヤー_2" data-name="レイヤー 2"><g id="header"><path class="cls-1" d="M7.34,183.82c.1.05.17.12.17.21a.37.37,0,0,1-.1.24,1.6,1.6,0,0,0-.22.69c-.07.38-.12.71-.17,1.1a35,35,0,0,0,4.79-.74c.12,0,.17,0,.21.12a2.73,2.73,0,0,1,.09.66.19.19,0,0,1-.19.21,35.72,35.72,0,0,1-5.05.76c-.09.91-.16,1.64-.17,2.47A13,13,0,0,1,9.82,189a3.88,3.88,0,0,0,.31-1.45,4.21,4.21,0,0,1,1,.47c.14.1.21.19.21.28s-.12.22-.19.34-.17.29-.26.47c2.47.36,3.84,2,3.84,4,0,2.71-2.41,4.09-5,4.69a.31.31,0,0,1-.41-.19,1.69,1.69,0,0,0-.6-.64A9.92,9.92,0,0,0,12,195.7,3.17,3.17,0,0,0,13.53,193a3.06,3.06,0,0,0-3-3,18.8,18.8,0,0,1-3.34,4.72,9.32,9.32,0,0,0,.36,1c.05.12,0,.17-.09.26a3,3,0,0,1-.64.34c-.1,0-.17,0-.22-.09a6.49,6.49,0,0,1-.29-.83A5.89,5.89,0,0,1,3.1,196.8C2,196.8,1.54,196,1.54,195c0-1.76,1.43-3.86,4.09-5.14,0-1,.09-1.9.14-2.76-1,.05-1.66.07-2.12.07a4.46,4.46,0,0,1-.81-.05c-.15,0-.21-.05-.22-.22s-.05-.48-.07-.79a26.9,26.9,0,0,0,3.35,0c.07-.6.12-1.05.15-1.5A3.91,3.91,0,0,0,6,183.51,4.55,4.55,0,0,1,7.34,183.82ZM2.61,194.89a.71.71,0,0,0,.76.81A5,5,0,0,0,6,194.36a21.54,21.54,0,0,1-.38-3.45C3.6,192,2.61,193.67,2.61,194.89Zm6.91-5a9.22,9.22,0,0,0-2.91.53,18,18,0,0,0,.31,3.19A17.23,17.23,0,0,0,9.53,189.91Z"/><path class="cls-1" d="M28.75,186.17c.16,0,.21,0,.22.1s.07.52.09.74,0,.19-.16.21c-.93.19-1.86.34-2.88.5A41.52,41.52,0,0,1,22.56,195c-.09.14-.17.12-.28.05a4,4,0,0,1-.69-.52c-.1-.09-.1-.16,0-.29a30.31,30.31,0,0,0,3.24-6.41c-.74.07-1.43.12-2.17.12-.26,0-.52,0-.91,0-.16,0-.17,0-.21-.21a5.35,5.35,0,0,1-.1-.86c.55.05,1,.07,1.36.07a22.17,22.17,0,0,0,2.35-.14c.21-.66.36-1.29.52-2a5.1,5.1,0,0,0,.14-1.34,7.23,7.23,0,0,1,1.34.34.2.2,0,0,1,.16.19.35.35,0,0,1-.14.26,1.57,1.57,0,0,0-.24.53c-.19.62-.38,1.26-.55,1.86A23.61,23.61,0,0,0,28.75,186.17Zm1.05,4.17a5.38,5.38,0,0,0-.1-1.1,5.45,5.45,0,0,1,1.17.22c.12,0,.19.1.19.21a.88.88,0,0,1-.1.31,2.66,2.66,0,0,0-.07.81A29.1,29.1,0,0,0,31.1,194a15,15,0,0,1,3.26,1.72c.14.09.12.14.07.28a5.48,5.48,0,0,1-.41.76c-.09.12-.17.1-.28,0a10.42,10.42,0,0,0-2.62-1.64c0,1.74-.86,2.69-3.09,2.69-1.31,0-2.67-.67-2.67-2.1s1.24-2.17,2.93-2.17a8.55,8.55,0,0,1,1.72.21C29.91,192.65,29.82,191.27,29.8,190.34Zm-1.47,4.12c-1.38,0-2,.53-2,1.17,0,.79.64,1.16,1.78,1.16,1.41,0,1.93-.74,1.93-1.62a2.36,2.36,0,0,0,0-.41A5.7,5.7,0,0,0,28.34,194.46Zm2.93-7.72c.09-.14.14-.16.29-.1a12.22,12.22,0,0,1,3.38,1.62c.12.1.12.17,0,.31a4.48,4.48,0,0,1-.4.69c-.09.12-.14.1-.24,0a11.61,11.61,0,0,0-3.52-1.76C31,187.24,31.13,186.94,31.27,186.74Z"/><path class="cls-1" d="M49.39,186.18c.14,0,.19,0,.21.12s.07.5.09.71,0,.22-.17.26a28.59,28.59,0,0,1-3.12.71,77.79,77.79,0,0,1-3.31,9.29c-.07.16-.14.16-.26.1s-.59-.26-.81-.38a.17.17,0,0,1-.07-.22,53.44,53.44,0,0,0,3.22-8.6c-1.12.12-2.31.19-3.48.21-.21,0-.24,0-.28-.17s-.09-.6-.14-.95a10,10,0,0,0,1.09,0,27.18,27.18,0,0,0,3.1-.21c.24-.91.38-1.53.5-2.17a6.93,6.93,0,0,0,.14-1.62,6.89,6.89,0,0,1,1.38.4.2.2,0,0,1,.14.19.46.46,0,0,1-.14.28,1.57,1.57,0,0,0-.28.67c-.21.71-.36,1.41-.55,2.07A20.82,20.82,0,0,0,49.39,186.18Zm-.86,7.9c.14,0,.17,0,.19.17.12,1.55,1.09,2.07,3.26,2.07a18.48,18.48,0,0,0,2.55-.22c.14,0,.19,0,.21.12a6.23,6.23,0,0,1,.07.83c0,.17-.05.21-.19.22a15.69,15.69,0,0,1-2.26.17c-1.86,0-3-.24-3.79-.95a2.93,2.93,0,0,1-.84-2.33A5.43,5.43,0,0,1,48.53,194.08Zm.43-4.43c0-.16,0-.21.22-.26a13.75,13.75,0,0,1,3-.36,17.32,17.32,0,0,1,2.14.17c.21,0,.24.09.26.19a5.35,5.35,0,0,1,0,.76c0,.21-.07.26-.22.22a13.79,13.79,0,0,0-2.21-.19,15.06,15.06,0,0,0-3.17.38C49,190.27,49,189.86,49,189.65Z"/><path class="cls-1" d="M66.39,185.48a5.93,5.93,0,0,0,.15-1.66,7.24,7.24,0,0,1,1.35.47.26.26,0,0,1,.07.45,1.16,1.16,0,0,0-.29.57c-.26.84-.48,1.66-.74,2.5a15.87,15.87,0,0,1,1.67-.12c1.5,0,2.24.76,2.24,2.83a14.31,14.31,0,0,1-.95,5.52,2.06,2.06,0,0,1-2,1.36,4.53,4.53,0,0,1-1.76-.31.28.28,0,0,1-.21-.29,3.06,3.06,0,0,0-.21-1,5,5,0,0,0,2,.48c.5,0,.83-.17,1.16-.9a13,13,0,0,0,.78-4.85c0-1.34-.26-1.83-1.19-1.83a12.17,12.17,0,0,0-1.86.19A46.86,46.86,0,0,1,63.12,197a.21.21,0,0,1-.29.09,4.88,4.88,0,0,1-.69-.47c-.1-.09-.09-.17,0-.28A36.64,36.64,0,0,0,65.41,189c-.71.1-1.41.22-2.28.38a2.51,2.51,0,0,0-.76.22c-.19.12-.35.12-.45-.09a6.57,6.57,0,0,1-.4-1.17,11.68,11.68,0,0,0,1.79-.09c.95-.1,1.62-.21,2.43-.33C66,187.13,66.17,186.44,66.39,185.48Zm6.24,1.41a.22.22,0,0,1,.26.07,9.84,9.84,0,0,1,2.78,4.17c0,.12.05.21-.05.29a3.85,3.85,0,0,1-.71.47c-.14.09-.26.07-.29-.1a9.59,9.59,0,0,0-2.76-4.36A7.71,7.71,0,0,1,72.64,186.89Zm.36-2.66c.07-.05.1,0,.17,0a8.36,8.36,0,0,1,1.95,2.09.12.12,0,0,1,0,.19l-.5.41a.14.14,0,0,1-.22,0,7.44,7.44,0,0,0-2-2.21Zm1.43-1.12c.07-.05.12-.07.19,0a9.92,9.92,0,0,1,2,2c.05.09,0,.14-.05.21l-.47.41c-.07.07-.14.07-.21,0a8.24,8.24,0,0,0-2-2.16Z"/><path class="cls-1" d="M84.33,191.91c.1.05.12.12.05.22a2.73,2.73,0,0,0-.47,1.34c0,1.41,1.59,2.1,4.41,2.1a21.45,21.45,0,0,0,4.95-.5c.16,0,.21,0,.24.12a8.71,8.71,0,0,1,.16.9c0,.14-.05.19-.22.22a24.9,24.9,0,0,1-5.22.45c-3.35,0-5.36-1-5.36-3.24a3.59,3.59,0,0,1,.71-2C83.81,191.61,84.08,191.77,84.33,191.91Zm4-6.45c1.24,0,2.62-.05,3.81-.16.16,0,.22,0,.24.16a5,5,0,0,1,.05.78c0,.19-.07.24-.24.26a11.43,11.43,0,0,0-4.47,2,.39.39,0,0,1-.48,0,1.94,1.94,0,0,0-.71-.34,22.58,22.58,0,0,1,3-1.72c-.57.05-1.33.07-1.86.07a18,18,0,0,1-3.5-.31c-.1,0-.15-.07-.15-.24s0-.59,0-.88A20.51,20.51,0,0,0,88.36,185.46Z"/><path class="cls-1" d="M108.26,186.29a19.24,19.24,0,0,1-2.28,7.54,2.88,2.88,0,0,1-2.53,1.78c-1.29,0-2.52-1.41-2.52-3.91a6.26,6.26,0,0,1,2-4.47,7.35,7.35,0,0,1,5.17-1.91c3.86,0,6.16,2.26,6.16,5.55,0,2.81-1.74,5.07-5.48,6a.34.34,0,0,1-.45-.19,2,2,0,0,0-.67-.64c3.41-.67,5.38-2.52,5.38-5.4a4.31,4.31,0,0,0-4.45-4.36Zm-4.57,1.66a5.35,5.35,0,0,0-1.66,3.72c0,1.88.78,2.69,1.4,2.69s1.1-.38,1.6-1.26a18.31,18.31,0,0,0,2-6.74A5.81,5.81,0,0,0,103.69,187.94Z"/><path class="cls-1" d="M132.12,187.84c1,0,1.85,0,2.79-.05.19,0,.21.05.21.21a5.37,5.37,0,0,1,0,.74c0,.17,0,.22-.22.21-.88,0-1.79,0-2.76,0h-.66a10.76,10.76,0,0,1-1.22,5.45,8,8,0,0,1-4.24,3.31c-.26.1-.31.14-.47,0a2.42,2.42,0,0,0-.9-.66c2.29-.72,3.79-1.76,4.62-3.21a9.68,9.68,0,0,0,1.05-4.88h-4.4v.84c0,1,0,1.88.05,2.79,0,.16-.05.19-.21.19a7.2,7.2,0,0,1-.86,0c-.16,0-.21,0-.21-.21,0-.88.07-1.76.07-2.74v-.88h-.88c-.91,0-1.91,0-2.66.07-.16,0-.16-.05-.19-.24s-.05-.6-.07-1c.9.05,1.81.07,2.91.07h.88v-1.41a11.49,11.49,0,0,0-.19-2.41,7.36,7.36,0,0,1,1.4.21c.26.07.19.26.09.48a6.27,6.27,0,0,0-.14,1.72v1.41h4.4l0-1.53a14.56,14.56,0,0,0-.16-2.59,10,10,0,0,1,1.29.22c.26.07.28.22.17.47a5.48,5.48,0,0,0-.14,1.84l0,1.59Z"/><path class="cls-1" d="M148,194.22c0,1,0,2,.05,3.12,0,.16,0,.21-.17.21a9.69,9.69,0,0,1-1,0c-.14,0-.17-.05-.17-.21,0-1,.07-2.07.07-3.07v-5.1a32.86,32.86,0,0,1-5.41,3.9.3.3,0,0,1-.4-.07,3.08,3.08,0,0,0-.86-.55,31.77,31.77,0,0,0,5.36-3.64,29,29,0,0,0,3.35-3.33,5.39,5.39,0,0,0,1.19-1.95,5.26,5.26,0,0,1,1.19.78.28.28,0,0,1-.07.48,4.15,4.15,0,0,0-1,.91,31.28,31.28,0,0,1-2.16,2.38Z"/><path class="cls-1" d="M162.66,188.67a24.31,24.31,0,0,1,5.62,2.4c.14.07.17.16.12.28a5.54,5.54,0,0,1-.41.84c-.1.14-.17.17-.33.07a19.14,19.14,0,0,0-5-2.31v4c0,1.05,0,2.4.05,3.52,0,.17,0,.22-.22.22a7.49,7.49,0,0,1-.88,0c-.19,0-.24-.05-.24-.24.05-1.1.07-2.45.07-3.5v-7.67a14.6,14.6,0,0,0-.19-2.76,7.13,7.13,0,0,1,1.43.22c.28.07.21.26.12.52a7.2,7.2,0,0,0-.12,1.91Z"/><path class="cls-1" d="M178,184.84c.17.1.24.17.24.28a.46.46,0,0,1-.12.29,2.53,2.53,0,0,0-.34.91,28.26,28.26,0,0,0-.81,5.95,13.16,13.16,0,0,0,.26,3c.41-1,.78-1.71,1.28-2.91a4.27,4.27,0,0,0,.41.69.27.27,0,0,1,.09.17.57.57,0,0,1-.09.28c-.38.88-.74,1.72-1.1,2.74a1,1,0,0,0-.07.43c0,.16,0,.26,0,.38a.15.15,0,0,1-.12.16,4.19,4.19,0,0,1-.78.17.22.22,0,0,1-.19-.17,15.31,15.31,0,0,1-.78-5,31.38,31.38,0,0,1,.71-5.88,9.94,9.94,0,0,0,.24-1.91A6.34,6.34,0,0,1,178,184.84Zm3.57,8.21c.09,0,.12,0,.12.17.05,1.31,1.1,1.9,3.14,1.9a25.79,25.79,0,0,0,3.4-.24c.14,0,.17,0,.19.17s.05.57.05.81,0,.17-.22.21a25.8,25.8,0,0,1-3.09.19c-1.93,0-3-.28-3.79-1.09a2.84,2.84,0,0,1-.72-2.05Zm-.31-6.41c0-.16,0-.21.21-.24a28.52,28.52,0,0,1,3.66-.31c1,0,2,0,2.45.09.22,0,.26,0,.26.17s0,.55,0,.81,0,.17-.19.16c-.67-.07-1.79-.09-2.78-.09a21.86,21.86,0,0,0-3.6.36C181.28,187.11,181.28,186.84,181.3,186.63Z"/><path class="cls-1" d="M198,195a2.8,2.8,0,0,0,1.55,1.55,9.17,9.17,0,0,0,3.59.48c2.21,0,4.57-.12,7.14-.36a2.76,2.76,0,0,0-.33.78c-.09.34-.09.34-.43.38-2.24.14-4.22.21-6,.21a11.33,11.33,0,0,1-4.38-.6,3.38,3.38,0,0,1-1.64-1.57,16.89,16.89,0,0,1-1.83,1.53,1.52,1.52,0,0,0-.38.36c-.05.1-.12.17-.21.17a.29.29,0,0,1-.21-.16c-.16-.26-.31-.55-.48-.9a6.38,6.38,0,0,0,1.07-.6A10.65,10.65,0,0,0,197,195v-2.79h-1.12c-.85,0-1,0-1.12,0s-.14,0-.14-.16v-.72c0-.12,0-.14.14-.14s.28,0,1.12,0h.86c.85,0,1.07,0,1.16,0s.14,0,.14.14,0,.41,0,1.29Zm-2.64-7.85c.12-.16.16-.17.28-.1a12.94,12.94,0,0,1,2.31,1.64c.1.1.09.14-.05.29l-.31.4c-.17.21-.22.22-.33.12a11.2,11.2,0,0,0-2.24-1.71c-.1-.07-.1-.12,0-.28Zm.43-3.55c.12-.16.16-.16.28-.09a12.39,12.39,0,0,1,2.12,1.62c.09.09.07.12,0,.26l-.36.43c-.14.17-.17.19-.28.09a10.07,10.07,0,0,0-2.05-1.67c-.12-.07-.12-.09,0-.28Zm12,4.67a9.5,9.5,0,0,0-.12-2.14,9.92,9.92,0,0,1,1.14.1c.1,0,.19.05.19.16a.57.57,0,0,1-.09.28,5.28,5.28,0,0,0-.09,1.59v4.35c0,1.41,0,2.07,0,2.16s0,.14-.14.14-.66,0-2.29,0h-4.05c-1.64,0-2.21,0-2.31,0s-.14,0-.14-.14,0-.74,0-2.16v-4.28a10.36,10.36,0,0,0-.12-2.17,7.53,7.53,0,0,1,1.14.1c.14,0,.21.1.21.16a.88.88,0,0,1-.1.36,5.64,5.64,0,0,0-.09,1.53v5.62h2.79v-8.52a11.49,11.49,0,0,0-.12-2.17,9.22,9.22,0,0,1,1.14.1c.12,0,.21.05.21.14a1.66,1.66,0,0,1-.09.34,7.13,7.13,0,0,0-.1,1.55v8.55h3Z"/><path class="cls-1" d="M219,184.15c.15.09.22.16.22.26a.43.43,0,0,1-.07.22,1.63,1.63,0,0,0-.31.67,25.78,25.78,0,0,0-.52,4,12,12,0,0,0,.07,1.95c.36-.72.88-1.71,1.28-2.48a2.45,2.45,0,0,0,.34.71.36.36,0,0,1,0,.47,17.6,17.6,0,0,0-1.09,2.28,1.38,1.38,0,0,0-.12.55c0,.16,0,.21-.12.24s-.53.09-.83.12c-.09,0-.14-.07-.17-.17a10.31,10.31,0,0,1-.43-3.22,31.92,31.92,0,0,1,.4-4.05,9.45,9.45,0,0,0,.16-1.91A4.9,4.9,0,0,1,219,184.15Zm5.45-.17c.26.05.29.17.26.34a2.91,2.91,0,0,0,0,.81c.14,1.91.21,3.34.21,4.57a9.34,9.34,0,0,1-1.41,5.66,8.85,8.85,0,0,1-2.85,2.5.32.32,0,0,1-.45,0,2.56,2.56,0,0,0-.88-.48,7.35,7.35,0,0,0,4.41-7.59c0-1.19-.07-2.83-.17-4.1a7.15,7.15,0,0,0-.35-1.81A6.08,6.08,0,0,1,224.44,184Z"/><path class="cls-1" d="M235.8,187.44a18.83,18.83,0,0,1,5.85-1.31c2.86,0,4.62,1.69,4.62,4.24a4.75,4.75,0,0,1-2.83,4.5,14.67,14.67,0,0,1-4.62,1.47.37.37,0,0,1-.43-.21,2.57,2.57,0,0,0-.76-.81,13.43,13.43,0,0,0,4.88-1.34,3.92,3.92,0,0,0,2.47-3.66c0-1.91-1.34-3.14-3.47-3.14-1.59,0-3.71.67-6.48,1.84a5.83,5.83,0,0,0-1.17.6.63.63,0,0,1-.33.16c-.12,0-.21-.07-.33-.21a7.16,7.16,0,0,1-.74-1.19A14.5,14.5,0,0,0,235.8,187.44Z"/><path class="cls-1" d="M255.65,185.75c.1.05.16.12.16.19a1.27,1.27,0,0,1-.07.31,5.94,5.94,0,0,0-.14,1.59,27.53,27.53,0,0,0,.24,3.91c.26,2,1,3.52,1.83,3.52s1.35-1.1,1.85-2.71a2.19,2.19,0,0,0,.57.86.38.38,0,0,1,.14.43c-.48,1.4-1.41,2.71-2.57,2.71-1.45,0-2.53-2-2.91-4.71a37.86,37.86,0,0,1-.31-4.81,7.32,7.32,0,0,0-.14-1.66A4.74,4.74,0,0,1,255.65,185.75Zm8.22,1.33c.1-.05.19-.07.26,0a10.45,10.45,0,0,1,3.36,6,.2.2,0,0,1-.12.22,3.41,3.41,0,0,1-.79.4.16.16,0,0,1-.22-.14,10,10,0,0,0-3.24-6A7.05,7.05,0,0,1,263.87,187.08Z"/><path class="cls-1" d="M282.19,186.18c.14,0,.19,0,.21.12s.07.5.09.71,0,.22-.17.26a28.59,28.59,0,0,1-3.12.71,77.79,77.79,0,0,1-3.31,9.29c-.07.16-.14.16-.26.1s-.59-.26-.81-.38a.17.17,0,0,1-.07-.22,53.44,53.44,0,0,0,3.22-8.6c-1.12.12-2.31.19-3.48.21-.21,0-.24,0-.28-.17s-.09-.6-.14-.95a10,10,0,0,0,1.09,0,27.18,27.18,0,0,0,3.1-.21c.24-.91.38-1.53.5-2.17a6.93,6.93,0,0,0,.14-1.62,6.89,6.89,0,0,1,1.38.4.2.2,0,0,1,.14.19.46.46,0,0,1-.14.28,1.57,1.57,0,0,0-.28.67c-.21.71-.36,1.41-.55,2.07A20.82,20.82,0,0,0,282.19,186.18Zm-.86,7.9c.14,0,.17,0,.19.17.12,1.55,1.09,2.07,3.26,2.07a18.48,18.48,0,0,0,2.55-.22c.14,0,.19,0,.21.12a6.23,6.23,0,0,1,.07.83c0,.17-.05.21-.19.22a15.69,15.69,0,0,1-2.26.17c-1.86,0-3-.24-3.79-.95a2.93,2.93,0,0,1-.84-2.33A5.43,5.43,0,0,1,281.32,194.08Zm.43-4.43c0-.16,0-.21.22-.26a13.75,13.75,0,0,1,3-.36,17.32,17.32,0,0,1,2.14.17c.21,0,.24.09.26.19a5.35,5.35,0,0,1,0,.76c0,.21-.07.26-.22.22a13.79,13.79,0,0,0-2.21-.19,15.06,15.06,0,0,0-3.17.38C281.77,190.27,281.76,189.86,281.76,189.65Z"/><path class="cls-1" d="M297.07,193.61a21,21,0,0,0,2.16-1.09,3.86,3.86,0,0,0-.05.66c0,.36,0,.36-.28.53a32.94,32.94,0,0,1-3.85,1.79,3.4,3.4,0,0,0-.62.28.38.38,0,0,1-.22.1c-.05,0-.12,0-.17-.16a6.63,6.63,0,0,1-.31-1,8.21,8.21,0,0,0,1.59-.43L296,194v-4.31h-.28c-1.12,0-1.45,0-1.53,0s-.14,0-.14-.14v-.72c0-.12,0-.14.14-.14s.41,0,1.53,0H296v-3.69h-.4c-1.21,0-1.57,0-1.67,0s-.12,0-.12-.14v-.74c0-.12,0-.14.12-.14s.47,0,1.67,0h1.76c1.22,0,1.57,0,1.66,0s.14,0,.14.14V185c0,.12,0,.14-.14.14s-.43,0-1.66,0h-.34v3.69h.19c1.12,0,1.45,0,1.55,0s.12,0,.12.14v.72c0,.12,0,.14-.12.14s-.43,0-1.55,0h-.19Zm12.29,3.76c0,.12,0,.14-.12.14s-.69,0-2.45,0h-6.31c-1.76,0-2.36,0-2.45,0s-.14,0-.14-.14v-.76c0-.12,0-.14.14-.14s.69,0,2.45,0h2.95v-2.24H302.1c-1.62,0-2.16,0-2.26,0s-.14,0-.14-.14v-.74c0-.12,0-.14.14-.14s.64,0,2.26,0h1.33v-2H302.1c-1.6,0-2.17,0-2.26,0s-.16,0-.16-.12,0-.59,0-1.9v-3.48c0-1.29,0-1.76,0-1.86s0-.14.16-.14.66,0,2.26,0h3.83c1.6,0,2.16,0,2.26,0s.14,0,.14.14,0,.57,0,1.86v3.48c0,1.31,0,1.79,0,1.9s0,.12-.14.12-.65,0-2.26,0h-1.5v2H306c1.62,0,2.16,0,2.26,0s.14,0,.14.14v.74c0,.12,0,.14-.14.14s-.64,0-2.26,0h-1.6v2.24h2.36c1.76,0,2.36,0,2.45,0s.12,0,.12.14Zm-5.93-12.55h-2.72v2.34h2.72Zm0,3.21h-2.72v2.43h2.72Zm3.86-3.21h-2.86v2.34h2.86Zm0,3.21h-2.86v2.43h2.86Z"/><path class="cls-1" d="M328.59,193.27c0,4,0,4.71,0,4.81s0,.12-.14.12h-.84c-.12,0-.14,0-.14-.12v-.91H316.69v.95c0,.12,0,.14-.14.14h-.83c-.12,0-.14,0-.14-.14s0-.76,0-4.83v-2.88c0-2.86,0-3.57,0-3.66s0-.14.14-.14.69,0,2.43,0h3.26V185.3a11.92,11.92,0,0,0-.14-2.33,11.26,11.26,0,0,1,1.21.1c.12,0,.21.07.21.16a1.89,1.89,0,0,1-.09.33,7.82,7.82,0,0,0-.1,1.71v1.38h3.55c1.74,0,2.33,0,2.43,0s.14,0,.14.14,0,.79,0,3.33Zm-7.17-5.64h-4.72v3.66h4.72Zm0,4.62h-4.72v3.93h4.72Zm6.09-4.62h-5v3.66h5Zm0,4.62h-5v3.93h5Z"/><path class="cls-1" d="M335.59,194.55a.3.3,0,0,1,.19-.1c.05,0,.1,0,.19.1a11.94,11.94,0,0,1,3.31,3.1.37.37,0,0,1,.09.21c0,.07,0,.12-.12.21l-.62.52c-.09.07-.14.1-.17.1s-.12,0-.19-.14a12.55,12.55,0,0,0-3.17-3.22c-.09-.05-.12-.09-.12-.12s0-.09.09-.17Z"/><path class="cls-1" d="M357.45,190.34a55.87,55.87,0,0,0-6.91,1.93,5.65,5.65,0,0,1-.57.22c-.07,0-.16-.09-.22-.21a7.75,7.75,0,0,1-.41-.9,3.18,3.18,0,0,0,.69-.21A6.8,6.8,0,0,0,352,190c1.72-1.41,3.4-2.91,5.69-5.17-1.47.24-2.91.48-4.28.74l-.62.14a2.48,2.48,0,0,1-.5.14c-.1,0-.17-.1-.26-.26a7.05,7.05,0,0,1-.4-1.07,8.81,8.81,0,0,0,1.52,0c1.38-.14,2.86-.36,4.52-.62a1.51,1.51,0,0,0,.66-.22.5.5,0,0,1,.26-.1.41.41,0,0,1,.29.14,3.54,3.54,0,0,1,.62.62.54.54,0,0,1,.14.33.35.35,0,0,1-.22.29,2.49,2.49,0,0,0-.62.4c-2.26,2-4.24,3.69-6.28,5.28l.05.05a62.54,62.54,0,0,1,9.47-2.05c.17,0,.24,0,.28.14a4.76,4.76,0,0,1,.12.88c0,.14-.05.17-.26.17a11.27,11.27,0,0,0-3.14.6c-2,.71-3.47,2-3.47,3.59,0,2,2.28,2.52,4.62,2.53.14,0,.19.05.19.21s-.07.62-.1.83-.07.22-.26.22-.67,0-1.07-.07c-2.71-.28-4.45-1.38-4.45-3.48,0-1.33.83-2.86,3-3.88Z"/><path class="cls-1" d="M376.45,186.29a19.25,19.25,0,0,1-2.28,7.54,2.88,2.88,0,0,1-2.53,1.78c-1.29,0-2.52-1.41-2.52-3.91a6.26,6.26,0,0,1,2-4.47,7.35,7.35,0,0,1,5.17-1.91c3.86,0,6.16,2.26,6.16,5.55,0,2.81-1.74,5.07-5.48,6a.34.34,0,0,1-.45-.19,2,2,0,0,0-.67-.64c3.41-.67,5.38-2.52,5.38-5.4a4.31,4.31,0,0,0-4.45-4.36Zm-4.57,1.66a5.35,5.35,0,0,0-1.66,3.72c0,1.88.78,2.69,1.4,2.69s1.1-.38,1.6-1.26a18.31,18.31,0,0,0,2-6.74A5.81,5.81,0,0,0,371.88,187.94Z"/><path class="cls-1" d="M399.18,185.27a.28.28,0,0,1,.07.43,4.49,4.49,0,0,0-.78,1.28,28.06,28.06,0,0,1-3,5.1,21.21,21.21,0,0,1-5.19,4.86.32.32,0,0,1-.43,0,3.49,3.49,0,0,0-1-.48,20.42,20.42,0,0,0,5.57-5,22.62,22.62,0,0,0,2.76-4.79,7.47,7.47,0,0,0,.55-2.07A7.74,7.74,0,0,1,399.18,185.27Z"/><path class="cls-1" d="M416.35,186.48c1.07,0,1.34,0,1.57-.16a.32.32,0,0,1,.4.05,2.76,2.76,0,0,1,.72.69.31.31,0,0,1-.05.45,1.57,1.57,0,0,0-.26.6,17.17,17.17,0,0,1-2.07,5.12,13.63,13.63,0,0,1-4.57,4.4c-.17.12-.26.07-.38,0a3.5,3.5,0,0,0-1-.5,12.35,12.35,0,0,0,4.84-4.38,15.4,15.4,0,0,0,2-5.16h-8.48v1.67c0,.78,0,1.38.05,2.07,0,.21,0,.26-.21.26a7.79,7.79,0,0,1-.9,0c-.16,0-.19-.05-.19-.22,0-.78,0-1.33,0-2.09V188c0-.55,0-1,0-1.43,0-.14.05-.21.21-.19.72.05,1.48.07,2.34.07h2.12v-.86a8.84,8.84,0,0,0-.16-2.05,8.78,8.78,0,0,1,1.4.17c.24.05.28.24.17.43a2.76,2.76,0,0,0-.19,1.36v.93Z"/><path class="cls-1" d="M429.56,188.84a5.44,5.44,0,0,0,.55-1.95,6.73,6.73,0,0,1,1.36.57c.24.14.19.33,0,.48a3,3,0,0,0-.6,1,17.81,17.81,0,0,1-3.9,5.67.37.37,0,0,1-.53.07,2.32,2.32,0,0,0-.95-.45A14.66,14.66,0,0,0,429.56,188.84Zm5.62-1.78c.16-.09.22-.1.36,0a22.82,22.82,0,0,1,4.31,6.19c.09.16.09.26-.07.36a6,6,0,0,1-.81.53c-.16.09-.21.05-.28-.1a21.91,21.91,0,0,0-4.28-6.5C434.72,187.37,435,187.17,435.18,187.06Z"/><path class="cls-1" d="M455.91,186.48c1.07,0,1.34,0,1.57-.16a.32.32,0,0,1,.4.05,2.76,2.76,0,0,1,.72.69.31.31,0,0,1-.05.45,1.57,1.57,0,0,0-.26.6,17.17,17.17,0,0,1-2.07,5.12,13.63,13.63,0,0,1-4.57,4.4c-.17.12-.26.07-.38,0a3.5,3.5,0,0,0-1-.5,12.35,12.35,0,0,0,4.84-4.38,15.4,15.4,0,0,0,2-5.16h-8.48v1.67c0,.78,0,1.38.05,2.07,0,.21,0,.26-.21.26a7.79,7.79,0,0,1-.9,0c-.16,0-.19-.05-.19-.22,0-.78,0-1.33,0-2.09V188c0-.55,0-1,0-1.43,0-.14.05-.21.21-.19.72.05,1.48.07,2.34.07H452v-.86a8.84,8.84,0,0,0-.16-2.05,8.78,8.78,0,0,1,1.4.17c.24.05.28.24.17.43a2.76,2.76,0,0,0-.19,1.36v.93Z"/><path class="cls-1" d="M473.91,194.67c0,.14,0,.19-.19.21a4.74,4.74,0,0,1-.74.07c-.1,0-.15-.09-.15-.21,0-.76,0-1.6,0-2.48-1.9.95-2.83,1.83-2.83,2.86s.95,1.43,2.95,1.43a30.38,30.38,0,0,0,4.1-.34.14.14,0,0,1,.19.12,4.91,4.91,0,0,1,.1.84c0,.16-.07.22-.14.24a34.09,34.09,0,0,1-4.26.24c-2.41,0-4-.62-4-2.47,0-1.45.95-2.62,3.81-4,0-1.17-.43-1.64-1.45-1.62a4.9,4.9,0,0,0-2.83,1.4c-.62.59-1,1-1.64,1.67-.1.12-.17.12-.26,0a5.7,5.7,0,0,1-.6-.67c-.05-.1-.07-.14,0-.24a18.94,18.94,0,0,0,4-4.79c-1.07.07-2.12.07-3.21,0-.14,0-.17-.05-.19-.17s-.09-.59-.1-.86a34.51,34.51,0,0,0,4,0,15.31,15.31,0,0,0,.62-1.72,2.6,2.6,0,0,0,.14-.93,5.57,5.57,0,0,1,1.29.38.21.21,0,0,1,0,.38,1.62,1.62,0,0,0-.31.48c-.21.43-.36.79-.59,1.31a32.59,32.59,0,0,0,3.64-.57c.14,0,.17,0,.21.07s.09.48.1.76c0,.12,0,.17-.22.21-1.36.24-2.83.43-4.21.57a14.47,14.47,0,0,1-1.76,2.57l0,0a3.74,3.74,0,0,1,2.16-.74,2,2,0,0,1,2.17,2c.84-.38,1.83-.83,2.69-1.24a4.71,4.71,0,0,0,1.31-.88,4.13,4.13,0,0,1,.85,1c.14.26,0,.36-.17.4a5,5,0,0,0-.95.28c-1.31.55-2.4.95-3.66,1.48Z"/><path class="cls-1" d="M500,189.92c-.09.19-.12.26-.21.26a.69.69,0,0,1-.28-.1,16.58,16.58,0,0,1-7.29-5.88,17.7,17.7,0,0,1-7,6,.64.64,0,0,1-.26.1c-.09,0-.14-.09-.24-.26a2.18,2.18,0,0,0-.52-.59,15.91,15.91,0,0,0,7.09-5.81,3.08,3.08,0,0,0,.46-1,11,11,0,0,1,1.09.24c.17.05.22.1.22.19s0,.12-.12.19a.62.62,0,0,0-.16.14,16.28,16.28,0,0,0,7.71,5.81A2.78,2.78,0,0,0,500,189.92Zm-.45,7.47c0,.12,0,.14-.14.14s-.65,0-2.31,0h-9.59c-1.67,0-2.22,0-2.33,0s-.14,0-.14-.14v-.76c0-.12,0-.14.14-.14s.66,0,2.33,0h4.14v-2.88h-1.84c-1.71,0-2.26,0-2.36,0s-.14,0-.14-.14v-.72c0-.12,0-.14.14-.14s.66,0,2.36,0h1.84v-2.57h-1.48c-1.66,0-2.19,0-2.28,0s-.14,0-.14-.14v-.74c0-.12,0-.14.14-.14s.62,0,2.28,0h4.12c1.64,0,2.19,0,2.29,0s.12,0,.12.14V190c0,.12,0,.14-.12.14s-.66,0-2.29,0h-1.6v2.57h2.12c1.69,0,2.26,0,2.35,0s.15,0,.15.14v.72c0,.12,0,.14-.15.14s-.66,0-2.35,0H492.7v2.88h4.41c1.66,0,2.22,0,2.31,0s.14,0,.14.14Z"/><path class="cls-1" d="M514.64,186.39c-2.59.41-4.83.78-7,1.22a3.7,3.7,0,0,0-1,.29,1,1,0,0,1-.33.12.29.29,0,0,1-.24-.16,9.5,9.5,0,0,1-.48-1.22,13.48,13.48,0,0,0,2.14-.21c2.57-.41,6.07-.93,10.69-1.5.17,0,.26,0,.29.14a4.9,4.9,0,0,1,.1.86c0,.16-.05.19-.22.21a7.13,7.13,0,0,0-2.52.52c-2.52,1-4.45,3.12-4.45,5.43,0,2.86,2.5,3.71,5,3.91.22,0,.28.05.28.19a5.16,5.16,0,0,1-.1.83c0,.19-.09.26-.28.24-2.91-.26-6.05-1.5-6.05-5,0-2.43,1.5-4.43,4.21-5.86Z"/><path class="cls-1" d="M529.59,187.92a16.65,16.65,0,0,0,2.31-3.07,4.15,4.15,0,0,0,.43-1,8.48,8.48,0,0,1,.88.47.29.29,0,0,1,.17.26c0,.07,0,.12-.12.19a2.9,2.9,0,0,0-.65.81,18.5,18.5,0,0,1-1.78,2.38c1.26,0,1.72,0,1.81,0s.16,0,.16.14v.64c0,.12,0,.14-.16.14s-.6,0-2.14,0H530a19,19,0,0,1-1.84,1.64h2.6a.5.5,0,0,0,.29-.05.32.32,0,0,1,.14,0c.07,0,.17.07.36.28s.31.36.31.48,0,.16-.16.21-.22.1-.54.43a17.08,17.08,0,0,1-1.62,1.43,1.56,1.56,0,0,0,0,.41c1-.19,2-.43,2.93-.71a3,3,0,0,0-.07.57c0,.34,0,.33-.38.43-.78.22-1.62.43-2.48.62v.38c0,.86,0,1.43,0,1.95a1.22,1.22,0,0,1-.45,1.07c-.36.28-.81.34-1.95.33-.33,0-.33,0-.41-.28a2.26,2.26,0,0,0-.34-.74,11.09,11.09,0,0,0,1.36.09c.52,0,.79-.14.79-.67v-1.93c-.84.17-1.67.31-2.48.43a2.56,2.56,0,0,0-.71.16.36.36,0,0,1-.21.09c-.09,0-.14,0-.19-.16a8.21,8.21,0,0,1-.29-.93,15,15,0,0,0,1.86-.17c.55-.07,1.26-.19,2-.33a9,9,0,0,0-.12-1.33l.72.07a10.1,10.1,0,0,0,1.29-1.28h-3.43a20.8,20.8,0,0,1-1.91,1.16.82.82,0,0,1-.24.09c-.09,0-.14-.07-.26-.22a1.43,1.43,0,0,0-.41-.43,19.82,19.82,0,0,0,4.48-3H527c-1.57,0-2.09,0-2.17,0s-.14,0-.14-.14V188c0-.12,0-.14.14-.14s.6,0,2.17,0h1.14V186h-.76c-1.21,0-1.59,0-1.67,0s-.14,0-.14-.14v-.64c0-.12,0-.14.14-.14s.47,0,1.67,0h.76V185a9.23,9.23,0,0,0-.12-2,7.43,7.43,0,0,1,1,.1c.14,0,.21.09.21.14a.8.8,0,0,1-.1.34,4.63,4.63,0,0,0-.09,1.36v.19c1.14,0,1.52,0,1.6,0s.14,0,.14.14v.64c0,.12,0,.14-.14.14s-.47,0-1.6,0v1.95Zm10.41-.66c0,.12,0,.14-.14.14l-1.4,0a14.82,14.82,0,0,1-1.85,6.4,13.59,13.59,0,0,0,3.72,3.48,1.89,1.89,0,0,0-.52.67c-.09.17-.14.26-.21.26s-.12-.05-.24-.14a17.08,17.08,0,0,1-3.34-3.41,12.37,12.37,0,0,1-4.41,3.59.79.79,0,0,1-.28.1c-.09,0-.12-.05-.22-.21a1.74,1.74,0,0,0-.55-.57,11.36,11.36,0,0,0,4.9-3.79,15.35,15.35,0,0,1-1.57-4.26c-.24.48-.52,1-.81,1.43-.09.14-.14.21-.21.21s-.12-.05-.24-.17a1.64,1.64,0,0,0-.53-.36,16.6,16.6,0,0,0,2.69-6.38,6.24,6.24,0,0,0,.12-1.33,7.81,7.81,0,0,1,1,.24c.12,0,.21.12.21.21s0,.16-.14.29a1.89,1.89,0,0,0-.28.81c-.16.66-.34,1.34-.57,2H538c1.36,0,1.78,0,1.86,0s.14,0,.14.14Zm-5.19.1-.31.81a15.4,15.4,0,0,0,1.53,4.66,13.59,13.59,0,0,0,1.43-5.47Z"/><path class="cls-1" d="M550.45,188.25c1.38-.22,2.41-.43,3.21-.62a1.82,1.82,0,0,0,.53-.21.3.3,0,0,1,.21-.07c.07,0,.1,0,.19.09a4.69,4.69,0,0,1,.64.55.42.42,0,0,1,.12.26.31.31,0,0,1-.19.28,2.57,2.57,0,0,0-.6.45c-1.24,1.26-2.41,2.52-3.64,3.81a2.32,2.32,0,0,1,1-.24c.9,0,1.59.67,1.83,1.91.33,1.62.66,1.88,2.52,1.88a14.25,14.25,0,0,0,2.55-.26c.14,0,.19,0,.21.17a5.67,5.67,0,0,1,.07.84c0,.12-.07.17-.22.19a14.72,14.72,0,0,1-2.46.22c-2.48,0-3.24-.55-3.59-2.28-.24-1.22-.53-1.88-1.33-1.88a3,3,0,0,0-1.95,1c-.88.84-1.9,2.05-2.67,3a.21.21,0,0,1-.28,0,7.86,7.86,0,0,1-.67-.6.22.22,0,0,1,0-.31l3.29-3.36c1.09-1.14,2.36-2.55,4.05-4.38l-4.76,1a4.5,4.5,0,0,0-.71.24.65.65,0,0,1-.31.09c-.09,0-.16-.07-.22-.21a7.3,7.3,0,0,1-.45-1.19A20,20,0,0,0,550.45,188.25Zm4.17-3.57c.16,0,.17.09.14.26a6.23,6.23,0,0,1-.26.79.2.2,0,0,1-.22.12,24.14,24.14,0,0,1-4.38-1.41.17.17,0,0,1-.1-.22,9.31,9.31,0,0,1,.34-.93A28,28,0,0,0,554.62,184.68Z"/><path class="cls-1" d="M570.37,191a33.54,33.54,0,0,1-4-.05c-.14,0-.17-.05-.19-.21a7.17,7.17,0,0,1-.05-.88,25.71,25.71,0,0,0,4.17.12c0-.84,0-1.74,0-2.57a32.85,32.85,0,0,1-4.57-.09c-.1,0-.14-.05-.16-.17a6.16,6.16,0,0,1-.07-.9,29.22,29.22,0,0,0,4.79.14c0-.71,0-1.19,0-1.83a4.13,4.13,0,0,0-.16-1.14,6.93,6.93,0,0,1,1.36.22.27.27,0,0,1,.16.4,1.61,1.61,0,0,0-.21.79c0,.55,0,.93-.05,1.52a40.27,40.27,0,0,0,4.21-.57c.14,0,.17,0,.19.12a6.32,6.32,0,0,1,.05.76c0,.14-.07.17-.12.17a42.83,42.83,0,0,1-4.33.5c0,.84,0,1.74,0,2.55a28.84,28.84,0,0,0,3.81-.5c.12,0,.17,0,.19.09s0,.53,0,.83c0,.1-.05.16-.17.17a31.55,31.55,0,0,1-3.81.47c0,1.07.05,2,.12,3a14,14,0,0,1,4.6,2.22c.09.07.12.14.07.29a2.29,2.29,0,0,1-.43.74c-.09.1-.16.12-.26.05a12.71,12.71,0,0,0-3.93-2.19c0,1.93-1,2.69-3.09,2.69s-3.05-.78-3.05-2.05c0-1.12,1.17-2.1,3.17-2.1a10.91,10.91,0,0,1,1.81.14C570.42,192.8,570.38,192,570.37,191Zm-1.71,3.55c-1.45,0-2.17.47-2.17,1.09s.67,1.07,1.93,1.07a2.36,2.36,0,0,0,1.76-.53,2,2,0,0,0,.31-1.4A8.16,8.16,0,0,0,568.66,194.6Z"/><path class="cls-1" d="M597.33,187c0,.16-.05.17-.22.17-1.84-.05-3.54-.07-5.48,0,0,1.09,0,2.28,0,3.43a7.37,7.37,0,0,1,.21,1.81,5.71,5.71,0,0,1-3.36,5.33.91.91,0,0,1-.4.16.5.5,0,0,1-.31-.14,2.57,2.57,0,0,0-.79-.48c2.47-1,3.6-2.6,3.76-4.35a2.13,2.13,0,0,1-1.9,1,2.22,2.22,0,0,1-2.28-2.43,2.31,2.31,0,0,1,2.36-2.4,2.18,2.18,0,0,1,1.62.59c0-.84,0-1.62,0-2.43-2.47.14-4.79.31-6.43.52-.41.05-.62.17-.76.17a.2.2,0,0,1-.21-.17,5.58,5.58,0,0,1-.28-1.1,15.42,15.42,0,0,0,2.17-.1c1.4-.1,3.17-.22,5.47-.36,0-.71,0-1.05,0-1.6a4.57,4.57,0,0,0-.17-1.16,8.7,8.7,0,0,1,1.31.19c.19.05.31.14.31.26a.64.64,0,0,1-.12.31,1,1,0,0,0-.12.47c0,.38,0,.71,0,1.47,1.91-.05,3.6-.05,5.52-.05.16,0,.19,0,.19.19Zm-9.74,4.45a1.36,1.36,0,0,0,1.4,1.48,1.52,1.52,0,0,0,1.57-1.52,1.44,1.44,0,0,0-1.54-1.47A1.42,1.42,0,0,0,587.59,191.43Z"/><path class="cls-1" d="M605.82,196.27a2.43,2.43,0,1,1-2.43-2.4A2.42,2.42,0,0,1,605.82,196.27Zm-4,0a1.53,1.53,0,1,0,1.53-1.53A1.54,1.54,0,0,0,601.85,196.27Z"/><path class="cls-2" d="M8.34,184.82c.1.05.17.12.17.21a.37.37,0,0,1-.1.24,1.6,1.6,0,0,0-.22.69c-.07.38-.12.71-.17,1.1a35,35,0,0,0,4.79-.74c.12,0,.17,0,.21.12a2.73,2.73,0,0,1,.09.66.19.19,0,0,1-.19.21,35.72,35.72,0,0,1-5.05.76c-.09.91-.16,1.64-.17,2.47a13,13,0,0,1,3.14-.48,3.88,3.88,0,0,0,.31-1.45,4.21,4.21,0,0,1,1,.47c.14.1.21.19.21.28s-.12.22-.19.34-.17.29-.26.47c2.47.36,3.84,2,3.84,4,0,2.71-2.41,4.09-5,4.69a.31.31,0,0,1-.41-.19,1.69,1.69,0,0,0-.6-.64A9.92,9.92,0,0,0,13,196.7,3.17,3.17,0,0,0,14.53,194a3.06,3.06,0,0,0-3-3,18.8,18.8,0,0,1-3.34,4.72,9.32,9.32,0,0,0,.36,1c.05.12,0,.17-.09.26a3,3,0,0,1-.64.34c-.1,0-.17,0-.22-.09a6.49,6.49,0,0,1-.29-.83A5.89,5.89,0,0,1,4.1,197.8C3,197.8,2.54,197,2.54,196c0-1.76,1.43-3.86,4.09-5.14,0-1,.09-1.9.14-2.76-1,.05-1.66.07-2.12.07a4.46,4.46,0,0,1-.81-.05c-.15,0-.21-.05-.22-.22s-.05-.48-.07-.79a26.9,26.9,0,0,0,3.35,0c.07-.6.12-1.05.15-1.5A3.91,3.91,0,0,0,7,184.51,4.55,4.55,0,0,1,8.34,184.82ZM3.61,195.89a.71.71,0,0,0,.76.81A5,5,0,0,0,7,195.36a21.54,21.54,0,0,1-.38-3.45C4.6,193,3.61,194.67,3.61,195.89Zm6.91-5a9.22,9.22,0,0,0-2.91.53,18,18,0,0,0,.31,3.19A17.23,17.23,0,0,0,10.53,190.91Z"/><path class="cls-2" d="M29.75,187.17c.16,0,.21,0,.22.1s.07.52.09.74,0,.19-.16.21c-.93.19-1.86.34-2.88.5A41.52,41.52,0,0,1,23.56,196c-.09.14-.17.12-.28.05a4,4,0,0,1-.69-.52c-.1-.09-.1-.16,0-.29a30.31,30.31,0,0,0,3.24-6.41c-.74.07-1.43.12-2.17.12-.26,0-.52,0-.91,0-.16,0-.17,0-.21-.21a5.35,5.35,0,0,1-.1-.86c.55.05,1,.07,1.36.07a22.17,22.17,0,0,0,2.35-.14c.21-.66.36-1.29.52-2a5.1,5.1,0,0,0,.14-1.34,7.23,7.23,0,0,1,1.34.34.2.2,0,0,1,.16.19.35.35,0,0,1-.14.26,1.57,1.57,0,0,0-.24.53c-.19.62-.38,1.26-.55,1.86A23.61,23.61,0,0,0,29.75,187.17Zm1.05,4.17a5.38,5.38,0,0,0-.1-1.1,5.45,5.45,0,0,1,1.17.22c.12,0,.19.1.19.21a.88.88,0,0,1-.1.31,2.66,2.66,0,0,0-.07.81A29.1,29.1,0,0,0,32.1,195a15,15,0,0,1,3.26,1.72c.14.09.12.14.07.28a5.48,5.48,0,0,1-.41.76c-.09.12-.17.1-.28,0a10.42,10.42,0,0,0-2.62-1.64c0,1.74-.86,2.69-3.09,2.69-1.31,0-2.67-.67-2.67-2.1s1.24-2.17,2.93-2.17a8.55,8.55,0,0,1,1.72.21C30.91,193.65,30.82,192.27,30.8,191.34Zm-1.47,4.12c-1.38,0-2,.53-2,1.17,0,.79.64,1.16,1.78,1.16,1.41,0,1.93-.74,1.93-1.62a2.36,2.36,0,0,0,0-.41A5.7,5.7,0,0,0,29.34,195.46Zm2.93-7.72c.09-.14.14-.16.29-.1a12.22,12.22,0,0,1,3.38,1.62c.12.1.12.17,0,.31a4.48,4.48,0,0,1-.4.69c-.09.12-.14.1-.24,0a11.61,11.61,0,0,0-3.52-1.76C32,188.24,32.13,187.94,32.27,187.74Z"/><path class="cls-2" d="M50.39,187.18c.14,0,.19,0,.21.12s.07.5.09.71,0,.22-.17.26a28.59,28.59,0,0,1-3.12.71,77.79,77.79,0,0,1-3.31,9.29c-.07.16-.14.16-.26.1s-.59-.26-.81-.38a.17.17,0,0,1-.07-.22,53.44,53.44,0,0,0,3.22-8.6c-1.12.12-2.31.19-3.48.21-.21,0-.24,0-.28-.17s-.09-.6-.14-.95a10,10,0,0,0,1.09,0,27.18,27.18,0,0,0,3.1-.21c.24-.91.38-1.53.5-2.17a6.93,6.93,0,0,0,.14-1.62,6.89,6.89,0,0,1,1.38.4.2.2,0,0,1,.14.19.46.46,0,0,1-.14.28,1.57,1.57,0,0,0-.28.67c-.21.71-.36,1.41-.55,2.07A20.82,20.82,0,0,0,50.39,187.18Zm-.86,7.9c.14,0,.17,0,.19.17.12,1.55,1.09,2.07,3.26,2.07a18.48,18.48,0,0,0,2.55-.22c.14,0,.19,0,.21.12a6.23,6.23,0,0,1,.07.83c0,.17-.05.21-.19.22a15.69,15.69,0,0,1-2.26.17c-1.86,0-3-.24-3.79-.95a2.93,2.93,0,0,1-.84-2.33A5.43,5.43,0,0,1,49.53,195.08Zm.43-4.43c0-.16,0-.21.22-.26a13.75,13.75,0,0,1,3-.36,17.32,17.32,0,0,1,2.14.17c.21,0,.24.09.26.19a5.35,5.35,0,0,1,0,.76c0,.21-.07.26-.22.22a13.79,13.79,0,0,0-2.21-.19,15.06,15.06,0,0,0-3.17.38C50,191.27,50,190.86,50,190.65Z"/><path class="cls-2" d="M67.39,186.48a5.93,5.93,0,0,0,.15-1.66,7.24,7.24,0,0,1,1.35.47.26.26,0,0,1,.07.45,1.16,1.16,0,0,0-.29.57c-.26.84-.48,1.66-.74,2.5a15.87,15.87,0,0,1,1.67-.12c1.5,0,2.24.76,2.24,2.83a14.31,14.31,0,0,1-.95,5.52,2.06,2.06,0,0,1-2,1.36,4.53,4.53,0,0,1-1.76-.31.28.28,0,0,1-.21-.29,3.06,3.06,0,0,0-.21-1,5,5,0,0,0,2,.48c.5,0,.83-.17,1.16-.9a13,13,0,0,0,.78-4.85c0-1.34-.26-1.83-1.19-1.83a12.17,12.17,0,0,0-1.86.19A46.86,46.86,0,0,1,64.12,198a.21.21,0,0,1-.29.09,4.88,4.88,0,0,1-.69-.47c-.1-.09-.09-.17,0-.28A36.64,36.64,0,0,0,66.41,190c-.71.1-1.41.22-2.28.38a2.51,2.51,0,0,0-.76.22c-.19.12-.35.12-.45-.09a6.57,6.57,0,0,1-.4-1.17,11.68,11.68,0,0,0,1.79-.09c.95-.1,1.62-.21,2.43-.33C67,188.13,67.17,187.44,67.39,186.48Zm6.24,1.41a.22.22,0,0,1,.26.07,9.84,9.84,0,0,1,2.78,4.17c0,.12.05.21-.05.29a3.85,3.85,0,0,1-.71.47c-.14.09-.26.07-.29-.1a9.59,9.59,0,0,0-2.76-4.36A7.71,7.71,0,0,1,73.64,187.89Zm.36-2.66c.07-.05.1,0,.17,0a8.36,8.36,0,0,1,1.95,2.09.12.12,0,0,1,0,.19l-.5.41a.14.14,0,0,1-.22,0,7.44,7.44,0,0,0-2-2.21Zm1.43-1.12c.07-.05.12-.07.19,0a9.92,9.92,0,0,1,2,2c.05.09,0,.14-.05.21l-.47.41c-.07.07-.14.07-.21,0a8.24,8.24,0,0,0-2-2.16Z"/><path class="cls-2" d="M85.33,192.91c.1.05.12.12.05.22a2.73,2.73,0,0,0-.47,1.34c0,1.41,1.59,2.1,4.41,2.1a21.45,21.45,0,0,0,4.95-.5c.16,0,.21,0,.24.12a8.71,8.71,0,0,1,.16.9c0,.14-.05.19-.22.22a24.9,24.9,0,0,1-5.22.45c-3.35,0-5.36-1-5.36-3.24a3.59,3.59,0,0,1,.71-2C84.81,192.61,85.08,192.77,85.33,192.91Zm4-6.45c1.24,0,2.62-.05,3.81-.16.16,0,.22,0,.24.16a5,5,0,0,1,.05.78c0,.19-.07.24-.24.26a11.43,11.43,0,0,0-4.47,2,.39.39,0,0,1-.48,0,1.94,1.94,0,0,0-.71-.34,22.58,22.58,0,0,1,3-1.72c-.57.05-1.33.07-1.86.07a18,18,0,0,1-3.5-.31c-.1,0-.15-.07-.15-.24s0-.59,0-.88A20.51,20.51,0,0,0,89.36,186.46Z"/><path class="cls-2" d="M109.26,187.29a19.24,19.24,0,0,1-2.28,7.54,2.88,2.88,0,0,1-2.53,1.78c-1.29,0-2.52-1.41-2.52-3.91a6.26,6.26,0,0,1,2-4.47,7.35,7.35,0,0,1,5.17-1.91c3.86,0,6.16,2.26,6.16,5.55,0,2.81-1.74,5.07-5.48,6a.34.34,0,0,1-.45-.19,2,2,0,0,0-.67-.64c3.41-.67,5.38-2.52,5.38-5.4a4.31,4.31,0,0,0-4.45-4.36Zm-4.57,1.66a5.35,5.35,0,0,0-1.66,3.72c0,1.88.78,2.69,1.4,2.69s1.1-.38,1.6-1.26a18.31,18.31,0,0,0,2-6.74A5.81,5.81,0,0,0,104.69,188.94Z"/><path class="cls-2" d="M133.12,188.84c1,0,1.85,0,2.79-.05.19,0,.21.05.21.21a5.37,5.37,0,0,1,0,.74c0,.17,0,.22-.22.21-.88,0-1.79,0-2.76,0h-.66a10.76,10.76,0,0,1-1.22,5.45,8,8,0,0,1-4.24,3.31c-.26.1-.31.14-.47,0a2.42,2.42,0,0,0-.9-.66c2.29-.72,3.79-1.76,4.62-3.21a9.68,9.68,0,0,0,1.05-4.88h-4.4v.84c0,1,0,1.88.05,2.79,0,.16-.05.19-.21.19a7.2,7.2,0,0,1-.86,0c-.16,0-.21,0-.21-.21,0-.88.07-1.76.07-2.74v-.88h-.88c-.91,0-1.91,0-2.66.07-.16,0-.16-.05-.19-.24s-.05-.6-.07-1c.9.05,1.81.07,2.91.07h.88v-1.41a11.49,11.49,0,0,0-.19-2.41,7.36,7.36,0,0,1,1.4.21c.26.07.19.26.09.48a6.27,6.27,0,0,0-.14,1.72v1.41h4.4l0-1.53a14.56,14.56,0,0,0-.16-2.59,10,10,0,0,1,1.29.22c.26.07.28.22.17.47a5.48,5.48,0,0,0-.14,1.84l0,1.59Z"/><path class="cls-2" d="M149,195.22c0,1,0,2,.05,3.12,0,.16,0,.21-.17.21a9.69,9.69,0,0,1-1,0c-.14,0-.17-.05-.17-.21,0-1,.07-2.07.07-3.07v-5.1a32.86,32.86,0,0,1-5.41,3.9.3.3,0,0,1-.4-.07,3.08,3.08,0,0,0-.86-.55,31.77,31.77,0,0,0,5.36-3.64,29,29,0,0,0,3.35-3.33,5.39,5.39,0,0,0,1.19-1.95,5.26,5.26,0,0,1,1.19.78.28.28,0,0,1-.07.48,4.15,4.15,0,0,0-1,.91,31.28,31.28,0,0,1-2.16,2.38Z"/><path class="cls-2" d="M163.66,189.67a24.31,24.31,0,0,1,5.62,2.4c.14.07.17.16.12.28a5.54,5.54,0,0,1-.41.84c-.1.14-.17.17-.33.07a19.14,19.14,0,0,0-5-2.31v4c0,1.05,0,2.4.05,3.52,0,.17,0,.22-.22.22a7.49,7.49,0,0,1-.88,0c-.19,0-.24-.05-.24-.24.05-1.1.07-2.45.07-3.5v-7.67a14.6,14.6,0,0,0-.19-2.76,7.13,7.13,0,0,1,1.43.22c.28.07.21.26.12.52a7.2,7.2,0,0,0-.12,1.91Z"/><path class="cls-2" d="M179,185.84c.17.1.24.17.24.28a.46.46,0,0,1-.12.29,2.53,2.53,0,0,0-.34.91,28.26,28.26,0,0,0-.81,5.95,13.16,13.16,0,0,0,.26,3c.41-1,.78-1.71,1.28-2.91a4.27,4.27,0,0,0,.41.69.27.27,0,0,1,.09.17.57.57,0,0,1-.09.28c-.38.88-.74,1.72-1.1,2.74a1,1,0,0,0-.07.43c0,.16,0,.26,0,.38a.15.15,0,0,1-.12.16,4.19,4.19,0,0,1-.78.17.22.22,0,0,1-.19-.17,15.31,15.31,0,0,1-.78-5,31.38,31.38,0,0,1,.71-5.88,9.94,9.94,0,0,0,.24-1.91A6.34,6.34,0,0,1,179,185.84Zm3.57,8.21c.09,0,.12,0,.12.17.05,1.31,1.1,1.9,3.14,1.9a25.79,25.79,0,0,0,3.4-.24c.14,0,.17,0,.19.17s.05.57.05.81,0,.17-.22.21a25.8,25.8,0,0,1-3.09.19c-1.93,0-3-.28-3.79-1.09a2.84,2.84,0,0,1-.72-2.05Zm-.31-6.41c0-.16,0-.21.21-.24a28.52,28.52,0,0,1,3.66-.31c1,0,2,0,2.45.09.22,0,.26,0,.26.17s0,.55,0,.81,0,.17-.19.16c-.67-.07-1.79-.09-2.78-.09a21.86,21.86,0,0,0-3.6.36C182.28,188.11,182.28,187.84,182.3,187.63Z"/><path class="cls-2" d="M199,196a2.8,2.8,0,0,0,1.55,1.55,9.17,9.17,0,0,0,3.59.48c2.21,0,4.57-.12,7.14-.36a2.76,2.76,0,0,0-.33.78c-.09.34-.09.34-.43.38-2.24.14-4.22.21-6,.21a11.33,11.33,0,0,1-4.38-.6,3.38,3.38,0,0,1-1.64-1.57,16.89,16.89,0,0,1-1.83,1.53,1.52,1.52,0,0,0-.38.36c-.05.1-.12.17-.21.17a.29.29,0,0,1-.21-.16c-.16-.26-.31-.55-.48-.9a6.38,6.38,0,0,0,1.07-.6A10.65,10.65,0,0,0,198,196v-2.79h-1.12c-.85,0-1,0-1.12,0s-.14,0-.14-.16v-.72c0-.12,0-.14.14-.14s.28,0,1.12,0h.86c.85,0,1.07,0,1.16,0s.14,0,.14.14,0,.41,0,1.29Zm-2.64-7.85c.12-.16.16-.17.28-.1a12.94,12.94,0,0,1,2.31,1.64c.1.1.09.14-.05.29l-.31.4c-.17.21-.22.22-.33.12a11.2,11.2,0,0,0-2.24-1.71c-.1-.07-.1-.12,0-.28Zm.43-3.55c.12-.16.16-.16.28-.09a12.39,12.39,0,0,1,2.12,1.62c.09.09.07.12,0,.26l-.36.43c-.14.17-.17.19-.28.09a10.07,10.07,0,0,0-2.05-1.67c-.12-.07-.12-.09,0-.28Zm12,4.67a9.5,9.5,0,0,0-.12-2.14,9.92,9.92,0,0,1,1.14.1c.1,0,.19.05.19.16a.57.57,0,0,1-.09.28,5.28,5.28,0,0,0-.09,1.59v4.35c0,1.41,0,2.07,0,2.16s0,.14-.14.14-.66,0-2.29,0h-4.05c-1.64,0-2.21,0-2.31,0s-.14,0-.14-.14,0-.74,0-2.16v-4.28a10.36,10.36,0,0,0-.12-2.17,7.53,7.53,0,0,1,1.14.1c.14,0,.21.1.21.16a.88.88,0,0,1-.1.36,5.64,5.64,0,0,0-.09,1.53v5.62h2.79v-8.52a11.49,11.49,0,0,0-.12-2.17,9.22,9.22,0,0,1,1.14.1c.12,0,.21.05.21.14a1.66,1.66,0,0,1-.09.34,7.13,7.13,0,0,0-.1,1.55v8.55h3Z"/><path class="cls-2" d="M220,185.15c.15.09.22.16.22.26a.43.43,0,0,1-.07.22,1.63,1.63,0,0,0-.31.67,25.78,25.78,0,0,0-.52,4,12,12,0,0,0,.07,1.95c.36-.72.88-1.71,1.28-2.48a2.45,2.45,0,0,0,.34.71.36.36,0,0,1,0,.47,17.6,17.6,0,0,0-1.09,2.28,1.38,1.38,0,0,0-.12.55c0,.16,0,.21-.12.24s-.53.09-.83.12c-.09,0-.14-.07-.17-.17a10.31,10.31,0,0,1-.43-3.22,31.92,31.92,0,0,1,.4-4.05,9.45,9.45,0,0,0,.16-1.91A4.9,4.9,0,0,1,220,185.15Zm5.45-.17c.26.05.29.17.26.34a2.91,2.91,0,0,0,0,.81c.14,1.91.21,3.34.21,4.57a9.34,9.34,0,0,1-1.41,5.66,8.85,8.85,0,0,1-2.85,2.5.32.32,0,0,1-.45,0,2.56,2.56,0,0,0-.88-.48,7.35,7.35,0,0,0,4.41-7.59c0-1.19-.07-2.83-.17-4.1a7.15,7.15,0,0,0-.35-1.81A6.08,6.08,0,0,1,225.44,185Z"/><path class="cls-2" d="M236.8,188.44a18.83,18.83,0,0,1,5.85-1.31c2.86,0,4.62,1.69,4.62,4.24a4.75,4.75,0,0,1-2.83,4.5,14.67,14.67,0,0,1-4.62,1.47.37.37,0,0,1-.43-.21,2.57,2.57,0,0,0-.76-.81,13.43,13.43,0,0,0,4.88-1.34,3.92,3.92,0,0,0,2.47-3.66c0-1.91-1.34-3.14-3.47-3.14-1.59,0-3.71.67-6.48,1.84a5.83,5.83,0,0,0-1.17.6.63.63,0,0,1-.33.16c-.12,0-.21-.07-.33-.21a7.16,7.16,0,0,1-.74-1.19A14.5,14.5,0,0,0,236.8,188.44Z"/><path class="cls-2" d="M256.65,186.75c.1.05.16.12.16.19a1.27,1.27,0,0,1-.07.31,5.94,5.94,0,0,0-.14,1.59,27.53,27.53,0,0,0,.24,3.91c.26,2,1,3.52,1.83,3.52s1.35-1.1,1.85-2.71a2.19,2.19,0,0,0,.57.86.38.38,0,0,1,.14.43c-.48,1.4-1.41,2.71-2.57,2.71-1.45,0-2.53-2-2.91-4.71a37.86,37.86,0,0,1-.31-4.81,7.32,7.32,0,0,0-.14-1.66A4.74,4.74,0,0,1,256.65,186.75Zm8.22,1.33c.1-.05.19-.07.26,0a10.45,10.45,0,0,1,3.36,6,.2.2,0,0,1-.12.22,3.41,3.41,0,0,1-.79.4.16.16,0,0,1-.22-.14,10,10,0,0,0-3.24-6A7.05,7.05,0,0,1,264.87,188.08Z"/><path class="cls-2" d="M283.19,187.18c.14,0,.19,0,.21.12s.07.5.09.71,0,.22-.17.26a28.59,28.59,0,0,1-3.12.71,77.79,77.79,0,0,1-3.31,9.29c-.07.16-.14.16-.26.1s-.59-.26-.81-.38a.17.17,0,0,1-.07-.22,53.44,53.44,0,0,0,3.22-8.6c-1.12.12-2.31.19-3.48.21-.21,0-.24,0-.28-.17s-.09-.6-.14-.95a10,10,0,0,0,1.09,0,27.18,27.18,0,0,0,3.1-.21c.24-.91.38-1.53.5-2.17a6.93,6.93,0,0,0,.14-1.62,6.89,6.89,0,0,1,1.38.4.2.2,0,0,1,.14.19.46.46,0,0,1-.14.28,1.57,1.57,0,0,0-.28.67c-.21.71-.36,1.41-.55,2.07A20.82,20.82,0,0,0,283.19,187.18Zm-.86,7.9c.14,0,.17,0,.19.17.12,1.55,1.09,2.07,3.26,2.07a18.48,18.48,0,0,0,2.55-.22c.14,0,.19,0,.21.12a6.23,6.23,0,0,1,.07.83c0,.17-.05.21-.19.22a15.69,15.69,0,0,1-2.26.17c-1.86,0-3-.24-3.79-.95a2.93,2.93,0,0,1-.84-2.33A5.43,5.43,0,0,1,282.32,195.08Zm.43-4.43c0-.16,0-.21.22-.26a13.75,13.75,0,0,1,3-.36,17.32,17.32,0,0,1,2.14.17c.21,0,.24.09.26.19a5.35,5.35,0,0,1,0,.76c0,.21-.07.26-.22.22a13.79,13.79,0,0,0-2.21-.19,15.06,15.06,0,0,0-3.17.38C282.77,191.27,282.76,190.86,282.76,190.65Z"/><path class="cls-2" d="M298.07,194.61a21,21,0,0,0,2.16-1.09,3.86,3.86,0,0,0-.05.66c0,.36,0,.36-.28.53a32.94,32.94,0,0,1-3.85,1.79,3.4,3.4,0,0,0-.62.28.38.38,0,0,1-.22.1c-.05,0-.12,0-.17-.16a6.63,6.63,0,0,1-.31-1,8.21,8.21,0,0,0,1.59-.43L297,195v-4.31h-.28c-1.12,0-1.45,0-1.53,0s-.14,0-.14-.14v-.72c0-.12,0-.14.14-.14s.41,0,1.53,0H297v-3.69h-.4c-1.21,0-1.57,0-1.67,0s-.12,0-.12-.14v-.74c0-.12,0-.14.12-.14s.47,0,1.67,0h1.76c1.22,0,1.57,0,1.66,0s.14,0,.14.14V186c0,.12,0,.14-.14.14s-.43,0-1.66,0h-.34v3.69h.19c1.12,0,1.45,0,1.55,0s.12,0,.12.14v.72c0,.12,0,.14-.12.14s-.43,0-1.55,0h-.19Zm12.29,3.76c0,.12,0,.14-.12.14s-.69,0-2.45,0h-6.31c-1.76,0-2.36,0-2.45,0s-.14,0-.14-.14v-.76c0-.12,0-.14.14-.14s.69,0,2.45,0h2.95v-2.24H303.1c-1.62,0-2.16,0-2.26,0s-.14,0-.14-.14v-.74c0-.12,0-.14.14-.14s.64,0,2.26,0h1.33v-2H303.1c-1.6,0-2.17,0-2.26,0s-.16,0-.16-.12,0-.59,0-1.9v-3.48c0-1.29,0-1.76,0-1.86s0-.14.16-.14.66,0,2.26,0h3.83c1.6,0,2.16,0,2.26,0s.14,0,.14.14,0,.57,0,1.86v3.48c0,1.31,0,1.79,0,1.9s0,.12-.14.12-.65,0-2.26,0h-1.5v2H307c1.62,0,2.16,0,2.26,0s.14,0,.14.14v.74c0,.12,0,.14-.14.14s-.64,0-2.26,0h-1.6v2.24h2.36c1.76,0,2.36,0,2.45,0s.12,0,.12.14Zm-5.93-12.55h-2.72v2.34h2.72Zm0,3.21h-2.72v2.43h2.72Zm3.86-3.21h-2.86v2.34h2.86Zm0,3.21h-2.86v2.43h2.86Z"/><path class="cls-2" d="M329.59,194.27c0,4,0,4.71,0,4.81s0,.12-.14.12h-.84c-.12,0-.14,0-.14-.12v-.91H317.69v.95c0,.12,0,.14-.14.14h-.83c-.12,0-.14,0-.14-.14s0-.76,0-4.83v-2.88c0-2.86,0-3.57,0-3.66s0-.14.14-.14.69,0,2.43,0h3.26V186.3a11.92,11.92,0,0,0-.14-2.33,11.26,11.26,0,0,1,1.21.1c.12,0,.21.07.21.16a1.89,1.89,0,0,1-.09.33,7.82,7.82,0,0,0-.1,1.71v1.38h3.55c1.74,0,2.33,0,2.43,0s.14,0,.14.14,0,.79,0,3.33Zm-7.17-5.64h-4.72v3.66h4.72Zm0,4.62h-4.72v3.93h4.72Zm6.09-4.62h-5v3.66h5Zm0,4.62h-5v3.93h5Z"/><path class="cls-2" d="M336.59,195.55a.3.3,0,0,1,.19-.1c.05,0,.1,0,.19.1a11.94,11.94,0,0,1,3.31,3.1.37.37,0,0,1,.09.21c0,.07,0,.12-.12.21l-.62.52c-.09.07-.14.1-.17.1s-.12,0-.19-.14a12.55,12.55,0,0,0-3.17-3.22c-.09-.05-.12-.09-.12-.12s0-.09.09-.17Z"/><path class="cls-2" d="M358.45,191.34a55.87,55.87,0,0,0-6.91,1.93,5.65,5.65,0,0,1-.57.22c-.07,0-.16-.09-.22-.21a7.75,7.75,0,0,1-.41-.9,3.18,3.18,0,0,0,.69-.21A6.8,6.8,0,0,0,353,191c1.72-1.41,3.4-2.91,5.69-5.17-1.47.24-2.91.48-4.28.74l-.62.14a2.48,2.48,0,0,1-.5.14c-.1,0-.17-.1-.26-.26a7.05,7.05,0,0,1-.4-1.07,8.81,8.81,0,0,0,1.52,0c1.38-.14,2.86-.36,4.52-.62a1.51,1.51,0,0,0,.66-.22.5.5,0,0,1,.26-.1.41.41,0,0,1,.29.14,3.54,3.54,0,0,1,.62.62.54.54,0,0,1,.14.33.35.35,0,0,1-.22.29,2.49,2.49,0,0,0-.62.4c-2.26,2-4.24,3.69-6.28,5.28l.05.05a62.54,62.54,0,0,1,9.47-2.05c.17,0,.24,0,.28.14a4.76,4.76,0,0,1,.12.88c0,.14-.05.17-.26.17a11.27,11.27,0,0,0-3.14.6c-2,.71-3.47,2-3.47,3.59,0,2,2.28,2.52,4.62,2.53.14,0,.19.05.19.21s-.07.62-.1.83-.07.22-.26.22-.67,0-1.07-.07c-2.71-.28-4.45-1.38-4.45-3.48,0-1.33.83-2.86,3-3.88Z"/><path class="cls-2" d="M377.45,187.29a19.25,19.25,0,0,1-2.28,7.54,2.88,2.88,0,0,1-2.53,1.78c-1.29,0-2.52-1.41-2.52-3.91a6.26,6.26,0,0,1,2-4.47,7.35,7.35,0,0,1,5.17-1.91c3.86,0,6.16,2.26,6.16,5.55,0,2.81-1.74,5.07-5.48,6a.34.34,0,0,1-.45-.19,2,2,0,0,0-.67-.64c3.41-.67,5.38-2.52,5.38-5.4a4.31,4.31,0,0,0-4.45-4.36Zm-4.57,1.66a5.35,5.35,0,0,0-1.66,3.72c0,1.88.78,2.69,1.4,2.69s1.1-.38,1.6-1.26a18.31,18.31,0,0,0,2-6.74A5.81,5.81,0,0,0,372.88,188.94Z"/><path class="cls-2" d="M400.18,186.27a.28.28,0,0,1,.07.43,4.49,4.49,0,0,0-.78,1.28,28.06,28.06,0,0,1-3,5.1,21.21,21.21,0,0,1-5.19,4.86.32.32,0,0,1-.43,0,3.49,3.49,0,0,0-1-.48,20.42,20.42,0,0,0,5.57-5,22.62,22.62,0,0,0,2.76-4.79,7.47,7.47,0,0,0,.55-2.07A7.74,7.74,0,0,1,400.18,186.27Z"/><path class="cls-2" d="M417.35,187.48c1.07,0,1.34,0,1.57-.16a.32.32,0,0,1,.4.05,2.76,2.76,0,0,1,.72.69.31.31,0,0,1-.05.45,1.57,1.57,0,0,0-.26.6,17.17,17.17,0,0,1-2.07,5.12,13.63,13.63,0,0,1-4.57,4.4c-.17.12-.26.07-.38,0a3.5,3.5,0,0,0-1-.5,12.35,12.35,0,0,0,4.84-4.38,15.4,15.4,0,0,0,2-5.16h-8.48v1.67c0,.78,0,1.38.05,2.07,0,.21,0,.26-.21.26a7.79,7.79,0,0,1-.9,0c-.16,0-.19-.05-.19-.22,0-.78,0-1.33,0-2.09V189c0-.55,0-1,0-1.43,0-.14.05-.21.21-.19.72.05,1.48.07,2.34.07h2.12v-.86a8.84,8.84,0,0,0-.16-2.05,8.78,8.78,0,0,1,1.4.17c.24.05.28.24.17.43a2.76,2.76,0,0,0-.19,1.36v.93Z"/><path class="cls-2" d="M430.56,189.84a5.44,5.44,0,0,0,.55-1.95,6.73,6.73,0,0,1,1.36.57c.24.14.19.33,0,.48a3,3,0,0,0-.6,1,17.81,17.81,0,0,1-3.9,5.67.37.37,0,0,1-.53.07,2.32,2.32,0,0,0-.95-.45A14.66,14.66,0,0,0,430.56,189.84Zm5.62-1.78c.16-.09.22-.1.36,0a22.82,22.82,0,0,1,4.31,6.19c.09.16.09.26-.07.36a6,6,0,0,1-.81.53c-.16.09-.21.05-.28-.1a21.91,21.91,0,0,0-4.28-6.5C435.72,188.37,436,188.17,436.18,188.06Z"/><path class="cls-2" d="M456.91,187.48c1.07,0,1.34,0,1.57-.16a.32.32,0,0,1,.4.05,2.76,2.76,0,0,1,.72.69.31.31,0,0,1-.05.45,1.57,1.57,0,0,0-.26.6,17.17,17.17,0,0,1-2.07,5.12,13.63,13.63,0,0,1-4.57,4.4c-.17.12-.26.07-.38,0a3.5,3.5,0,0,0-1-.5,12.35,12.35,0,0,0,4.84-4.38,15.4,15.4,0,0,0,2-5.16h-8.48v1.67c0,.78,0,1.38.05,2.07,0,.21,0,.26-.21.26a7.79,7.79,0,0,1-.9,0c-.16,0-.19-.05-.19-.22,0-.78,0-1.33,0-2.09V189c0-.55,0-1,0-1.43,0-.14.05-.21.21-.19.72.05,1.48.07,2.34.07H453v-.86a8.84,8.84,0,0,0-.16-2.05,8.78,8.78,0,0,1,1.4.17c.24.05.28.24.17.43a2.76,2.76,0,0,0-.19,1.36v.93Z"/><path class="cls-2" d="M474.91,195.67c0,.14,0,.19-.19.21a4.74,4.74,0,0,1-.74.07c-.1,0-.15-.09-.15-.21,0-.76,0-1.6,0-2.48-1.9.95-2.83,1.83-2.83,2.86s.95,1.43,2.95,1.43a30.38,30.38,0,0,0,4.1-.34.14.14,0,0,1,.19.12,4.91,4.91,0,0,1,.1.84c0,.16-.07.22-.14.24a34.09,34.09,0,0,1-4.26.24c-2.41,0-4-.62-4-2.47,0-1.45.95-2.62,3.81-4,0-1.17-.43-1.64-1.45-1.62a4.9,4.9,0,0,0-2.83,1.4c-.62.59-1,1-1.64,1.67-.1.12-.17.12-.26,0a5.7,5.7,0,0,1-.6-.67c-.05-.1-.07-.14,0-.24a18.94,18.94,0,0,0,4-4.79c-1.07.07-2.12.07-3.21,0-.14,0-.17-.05-.19-.17s-.09-.59-.1-.86a34.51,34.51,0,0,0,4,0,15.31,15.31,0,0,0,.62-1.72,2.6,2.6,0,0,0,.14-.93,5.57,5.57,0,0,1,1.29.38.21.21,0,0,1,0,.38,1.62,1.62,0,0,0-.31.48c-.21.43-.36.79-.59,1.31a32.59,32.59,0,0,0,3.64-.57c.14,0,.17,0,.21.07s.09.48.1.76c0,.12,0,.17-.22.21-1.36.24-2.83.43-4.21.57a14.47,14.47,0,0,1-1.76,2.57l0,0a3.74,3.74,0,0,1,2.16-.74,2,2,0,0,1,2.17,2c.84-.38,1.83-.83,2.69-1.24a4.71,4.71,0,0,0,1.31-.88,4.13,4.13,0,0,1,.85,1c.14.26,0,.36-.17.4a5,5,0,0,0-.95.28c-1.31.55-2.4.95-3.66,1.48Z"/><path class="cls-2" d="M501,190.92c-.09.19-.12.26-.21.26a.69.69,0,0,1-.28-.1,16.58,16.58,0,0,1-7.29-5.88,17.7,17.7,0,0,1-7,6,.64.64,0,0,1-.26.1c-.09,0-.14-.09-.24-.26a2.18,2.18,0,0,0-.52-.59,15.91,15.91,0,0,0,7.09-5.81,3.08,3.08,0,0,0,.46-1,11,11,0,0,1,1.09.24c.17.05.22.1.22.19s0,.12-.12.19a.62.62,0,0,0-.16.14,16.28,16.28,0,0,0,7.71,5.81A2.78,2.78,0,0,0,501,190.92Zm-.45,7.47c0,.12,0,.14-.14.14s-.65,0-2.31,0h-9.59c-1.67,0-2.22,0-2.33,0s-.14,0-.14-.14v-.76c0-.12,0-.14.14-.14s.66,0,2.33,0h4.14v-2.88h-1.84c-1.71,0-2.26,0-2.36,0s-.14,0-.14-.14v-.72c0-.12,0-.14.14-.14s.66,0,2.36,0h1.84v-2.57h-1.48c-1.66,0-2.19,0-2.28,0s-.14,0-.14-.14v-.74c0-.12,0-.14.14-.14s.62,0,2.28,0h4.12c1.64,0,2.19,0,2.29,0s.12,0,.12.14V191c0,.12,0,.14-.12.14s-.66,0-2.29,0h-1.6v2.57h2.12c1.69,0,2.26,0,2.35,0s.15,0,.15.14v.72c0,.12,0,.14-.15.14s-.66,0-2.35,0H493.7v2.88h4.41c1.66,0,2.22,0,2.31,0s.14,0,.14.14Z"/><path class="cls-2" d="M515.64,187.39c-2.59.41-4.83.78-7,1.22a3.7,3.7,0,0,0-1,.29,1,1,0,0,1-.33.12.29.29,0,0,1-.24-.16,9.5,9.5,0,0,1-.48-1.22,13.48,13.48,0,0,0,2.14-.21c2.57-.41,6.07-.93,10.69-1.5.17,0,.26,0,.29.14a4.9,4.9,0,0,1,.1.86c0,.16-.05.19-.22.21a7.13,7.13,0,0,0-2.52.52c-2.52,1-4.45,3.12-4.45,5.43,0,2.86,2.5,3.71,5,3.91.22,0,.28.05.28.19a5.16,5.16,0,0,1-.1.83c0,.19-.09.26-.28.24-2.91-.26-6.05-1.5-6.05-5,0-2.43,1.5-4.43,4.21-5.86Z"/><path class="cls-2" d="M530.59,188.92a16.65,16.65,0,0,0,2.31-3.07,4.15,4.15,0,0,0,.43-1,8.48,8.48,0,0,1,.88.47.29.29,0,0,1,.17.26c0,.07,0,.12-.12.19a2.9,2.9,0,0,0-.65.81,18.5,18.5,0,0,1-1.78,2.38c1.26,0,1.72,0,1.81,0s.16,0,.16.14v.64c0,.12,0,.14-.16.14s-.6,0-2.14,0H531a19,19,0,0,1-1.84,1.64h2.6a.5.5,0,0,0,.29-.05.32.32,0,0,1,.14,0c.07,0,.17.07.36.28s.31.36.31.48,0,.16-.16.21-.22.1-.54.43a17.08,17.08,0,0,1-1.62,1.43,1.56,1.56,0,0,0,0,.41c1-.19,2-.43,2.93-.71a3,3,0,0,0-.07.57c0,.34,0,.33-.38.43-.78.22-1.62.43-2.48.62v.38c0,.86,0,1.43,0,1.95a1.22,1.22,0,0,1-.45,1.07c-.36.28-.81.34-1.95.33-.33,0-.33,0-.41-.28a2.26,2.26,0,0,0-.34-.74,11.09,11.09,0,0,0,1.36.09c.52,0,.79-.14.79-.67v-1.93c-.84.17-1.67.31-2.48.43a2.56,2.56,0,0,0-.71.16.36.36,0,0,1-.21.09c-.09,0-.14,0-.19-.16a8.21,8.21,0,0,1-.29-.93,15,15,0,0,0,1.86-.17c.55-.07,1.26-.19,2-.33a9,9,0,0,0-.12-1.33l.72.07a10.1,10.1,0,0,0,1.29-1.28h-3.43a20.8,20.8,0,0,1-1.91,1.16.82.82,0,0,1-.24.09c-.09,0-.14-.07-.26-.22a1.43,1.43,0,0,0-.41-.43,19.82,19.82,0,0,0,4.48-3H528c-1.57,0-2.09,0-2.17,0s-.14,0-.14-.14V189c0-.12,0-.14.14-.14s.6,0,2.17,0h1.14V187h-.76c-1.21,0-1.59,0-1.67,0s-.14,0-.14-.14v-.64c0-.12,0-.14.14-.14s.47,0,1.67,0h.76V186a9.23,9.23,0,0,0-.12-2,7.43,7.43,0,0,1,1,.1c.14,0,.21.09.21.14a.8.8,0,0,1-.1.34,4.63,4.63,0,0,0-.09,1.36v.19c1.14,0,1.52,0,1.6,0s.14,0,.14.14v.64c0,.12,0,.14-.14.14s-.47,0-1.6,0v1.95Zm10.41-.66c0,.12,0,.14-.14.14l-1.4,0a14.82,14.82,0,0,1-1.85,6.4,13.59,13.59,0,0,0,3.72,3.48,1.89,1.89,0,0,0-.52.67c-.09.17-.14.26-.21.26s-.12-.05-.24-.14a17.08,17.08,0,0,1-3.34-3.41,12.37,12.37,0,0,1-4.41,3.59.79.79,0,0,1-.28.1c-.09,0-.12-.05-.22-.21a1.74,1.74,0,0,0-.55-.57,11.36,11.36,0,0,0,4.9-3.79,15.35,15.35,0,0,1-1.57-4.26c-.24.48-.52,1-.81,1.43-.09.14-.14.21-.21.21s-.12-.05-.24-.17a1.64,1.64,0,0,0-.53-.36,16.6,16.6,0,0,0,2.69-6.38,6.24,6.24,0,0,0,.12-1.33,7.81,7.81,0,0,1,1,.24c.12,0,.21.12.21.21s0,.16-.14.29a1.89,1.89,0,0,0-.28.81c-.16.66-.34,1.34-.57,2H539c1.36,0,1.78,0,1.86,0s.14,0,.14.14Zm-5.19.1-.31.81a15.4,15.4,0,0,0,1.53,4.66,13.59,13.59,0,0,0,1.43-5.47Z"/><path class="cls-2" d="M551.45,189.25c1.38-.22,2.41-.43,3.21-.62a1.82,1.82,0,0,0,.53-.21.3.3,0,0,1,.21-.07c.07,0,.1,0,.19.09a4.69,4.69,0,0,1,.64.55.42.42,0,0,1,.12.26.31.31,0,0,1-.19.28,2.57,2.57,0,0,0-.6.45c-1.24,1.26-2.41,2.52-3.64,3.81a2.32,2.32,0,0,1,1-.24c.9,0,1.59.67,1.83,1.91.33,1.62.66,1.88,2.52,1.88a14.25,14.25,0,0,0,2.55-.26c.14,0,.19,0,.21.17a5.67,5.67,0,0,1,.07.84c0,.12-.07.17-.22.19a14.72,14.72,0,0,1-2.46.22c-2.48,0-3.24-.55-3.59-2.28-.24-1.22-.53-1.88-1.33-1.88a3,3,0,0,0-1.95,1c-.88.84-1.9,2.05-2.67,3a.21.21,0,0,1-.28,0,7.86,7.86,0,0,1-.67-.6.22.22,0,0,1,0-.31l3.29-3.36c1.09-1.14,2.36-2.55,4.05-4.38l-4.76,1a4.5,4.5,0,0,0-.71.24.65.65,0,0,1-.31.09c-.09,0-.16-.07-.22-.21a7.3,7.3,0,0,1-.45-1.19A20,20,0,0,0,551.45,189.25Zm4.17-3.57c.16,0,.17.09.14.26a6.23,6.23,0,0,1-.26.79.2.2,0,0,1-.22.12,24.14,24.14,0,0,1-4.38-1.41.17.17,0,0,1-.1-.22,9.31,9.31,0,0,1,.34-.93A28,28,0,0,0,555.62,185.68Z"/><path class="cls-2" d="M571.37,192a33.54,33.54,0,0,1-4-.05c-.14,0-.17-.05-.19-.21a7.17,7.17,0,0,1-.05-.88,25.71,25.71,0,0,0,4.17.12c0-.84,0-1.74,0-2.57a32.85,32.85,0,0,1-4.57-.09c-.1,0-.14-.05-.16-.17a6.16,6.16,0,0,1-.07-.9,29.22,29.22,0,0,0,4.79.14c0-.71,0-1.19,0-1.83a4.13,4.13,0,0,0-.16-1.14,6.93,6.93,0,0,1,1.36.22.27.27,0,0,1,.16.4,1.61,1.61,0,0,0-.21.79c0,.55,0,.93-.05,1.52a40.27,40.27,0,0,0,4.21-.57c.14,0,.17,0,.19.12a6.32,6.32,0,0,1,.05.76c0,.14-.07.17-.12.17a42.83,42.83,0,0,1-4.33.5c0,.84,0,1.74,0,2.55a28.84,28.84,0,0,0,3.81-.5c.12,0,.17,0,.19.09s0,.53,0,.83c0,.1-.05.16-.17.17a31.55,31.55,0,0,1-3.81.47c0,1.07.05,2,.12,3a14,14,0,0,1,4.6,2.22c.09.07.12.14.07.29a2.29,2.29,0,0,1-.43.74c-.09.1-.16.12-.26.05a12.71,12.71,0,0,0-3.93-2.19c0,1.93-1,2.69-3.09,2.69s-3.05-.78-3.05-2.05c0-1.12,1.17-2.1,3.17-2.1a10.91,10.91,0,0,1,1.81.14C571.42,193.8,571.38,193,571.37,192Zm-1.71,3.55c-1.45,0-2.17.47-2.17,1.09s.67,1.07,1.93,1.07a2.36,2.36,0,0,0,1.76-.53,2,2,0,0,0,.31-1.4A8.16,8.16,0,0,0,569.66,195.6Z"/><path class="cls-2" d="M598.33,188c0,.16-.05.17-.22.17-1.84-.05-3.54-.07-5.48,0,0,1.09,0,2.28,0,3.43a7.37,7.37,0,0,1,.21,1.81,5.71,5.71,0,0,1-3.36,5.33.91.91,0,0,1-.4.16.5.5,0,0,1-.31-.14,2.57,2.57,0,0,0-.79-.48c2.47-1,3.6-2.6,3.76-4.35a2.13,2.13,0,0,1-1.9,1,2.22,2.22,0,0,1-2.28-2.43,2.31,2.31,0,0,1,2.36-2.4,2.18,2.18,0,0,1,1.62.59c0-.84,0-1.62,0-2.43-2.47.14-4.79.31-6.43.52-.41.05-.62.17-.76.17a.2.2,0,0,1-.21-.17,5.58,5.58,0,0,1-.28-1.1,15.42,15.42,0,0,0,2.17-.1c1.4-.1,3.17-.22,5.47-.36,0-.71,0-1.05,0-1.6a4.57,4.57,0,0,0-.17-1.16,8.7,8.7,0,0,1,1.31.19c.19.05.31.14.31.26a.64.64,0,0,1-.12.31,1,1,0,0,0-.12.47c0,.38,0,.71,0,1.47,1.91-.05,3.6-.05,5.52-.05.16,0,.19,0,.19.19Zm-9.74,4.45a1.36,1.36,0,0,0,1.4,1.48,1.52,1.52,0,0,0,1.57-1.52,1.44,1.44,0,0,0-1.54-1.47A1.42,1.42,0,0,0,588.59,192.43Z"/><path class="cls-2" d="M606.82,197.27a2.43,2.43,0,1,1-2.43-2.4A2.42,2.42,0,0,1,606.82,197.27Zm-4,0a1.53,1.53,0,1,0,1.53-1.53A1.54,1.54,0,0,0,602.85,197.27Z"/><path class="cls-1" d="M12.5,128.37c.45.3.74.6.74.94s-.15.5-.55.79a4.65,4.65,0,0,0-1.24,1.69A38.23,38.23,0,0,1,6,140.08a1.35,1.35,0,0,1-1,.6,1.45,1.45,0,0,1-.74-.3A14.47,14.47,0,0,0,0,138.29a33.15,33.15,0,0,0,6-8.19,11,11,0,0,0,1.34-4A23.12,23.12,0,0,1,12.5,128.37Zm6.6-13.65a38.28,38.28,0,0,0-.55-7.64c2.33.2,4.91.5,6.15.74q.89.15.89.74a1.89,1.89,0,0,1-.3.89c-.45.84-.5,2-.5,5v2.63h6.1c4.32,0,7.69-.2,10.12-.3.45,0,.65.25.65.79a33.56,33.56,0,0,1,0,3.87c0,.65-.2,1-.69.94-3.08-.1-6.85-.25-10.22-.25H24.86l0,10c0,2.63.1,4.76.1,8.63a5.17,5.17,0,0,1-2.93,5.11,15.41,15.41,0,0,1-6.35,1.64c-.6,0-.89-.3-1.19-1A11.6,11.6,0,0,0,11.21,142a24.71,24.71,0,0,0,6.75-.6c.79-.35,1.14-.89,1.14-2.18V122.11H11.31c-2.83,0-6.25.15-8.58.35-.45,0-.65-.4-.65-1,0-.89-.2-3.13-.2-4.76,3.77.3,6.8.35,9.33.35H19.1Zm14.59,11.86a1,1,0,0,1,.65-.25.94.94,0,0,1,.74.45,38.25,38.25,0,0,1,7.1,9.08,1.31,1.31,0,0,1,.25.74,1,1,0,0,1-.5.79,27.56,27.56,0,0,1-3.32,2.48,1.63,1.63,0,0,1-.6.3c-.2,0-.35-.15-.55-.5a48.13,48.13,0,0,0-7.54-10.42C31.26,128.27,32.55,127.42,33.69,126.58Z"/><path class="cls-1" d="M63.31,130.65a39.69,39.69,0,0,0-7.29.6c-.6,0-1-.3-1.14-1a53.82,53.82,0,0,1-.74-6,63.73,63.73,0,0,0,10.72.6h16c3.77,0,7.59-.1,11.41-.15.74,0,.89.1.89.69a36.62,36.62,0,0,1,0,4.66c0,.6-.2.79-.89.74-3.72,0-7.39-.1-11.07-.1Z"/><path class="cls-1" d="M124.74,109.56c.35.25.6.5.6.79a1.67,1.67,0,0,1-.5,1,15.94,15.94,0,0,0-2,4.12c-2.78,7.59-5.41,14.89-8.53,22.33,7.64-.65,11.81-1,17.37-1.89a49.45,49.45,0,0,0-5.51-7.94c1.49-.79,2.93-1.64,4.32-2.38.55-.3.84-.1,1.19.3a69.78,69.78,0,0,1,10,16.23,1.2,1.2,0,0,1,.2.65c0,.3-.2.6-.65.84a25,25,0,0,1-3.77,2,1.32,1.32,0,0,1-.6.15c-.3,0-.55-.25-.69-.69-.6-1.39-1.14-2.68-1.74-4-7.94,1.19-15.48,2-23.57,2.88-3.28.35-4.62.6-5.81,1.19-.65.3-1.19.2-1.44-.5a46.25,46.25,0,0,1-1.74-6.4c2,.15,4.07.1,6.05,0,3.52-8.88,6.1-16.23,8.68-24.56A26.46,26.46,0,0,0,118,107,26.94,26.94,0,0,1,124.74,109.56Z"/><path class="cls-1" d="M157,126.23c2.43-2.48,4.86-5,7.2-7.49,2-2.08,2.93-2.63,4.47-2.63s2.48.4,4.32,2a157.61,157.61,0,0,0,22.23,16.13.87.87,0,0,1,.45,1.34,29.09,29.09,0,0,1-2.58,4.32c-.25.35-.5.55-.74.55a.83.83,0,0,1-.55-.2,224.83,224.83,0,0,1-22-17.32,1.23,1.23,0,0,0-.79-.35,1,1,0,0,0-.79.4c-2.43,2.53-4.66,5.21-8.09,9a16.27,16.27,0,0,0-2,2.53,1.13,1.13,0,0,1-.89.65,1,1,0,0,1-.69-.35,57.12,57.12,0,0,1-4.61-4.37A22.85,22.85,0,0,0,157,126.23Zm35.08-11.46a5.36,5.36,0,0,1-10.72,0,5.23,5.23,0,0,1,5.36-5.31A5.3,5.3,0,0,1,192.12,114.77Zm-8.29,0a2.93,2.93,0,1,0,2.93-2.93A2.84,2.84,0,0,0,183.83,114.77Z"/><path class="cls-1" d="M215.48,130.65a39.69,39.69,0,0,0-7.29.6c-.6,0-1-.3-1.14-1a53.82,53.82,0,0,1-.74-6,63.73,63.73,0,0,0,10.72.6h16c3.77,0,7.59-.1,11.41-.15.74,0,.89.1.89.69a36.62,36.62,0,0,1,0,4.66c0,.6-.2.79-.89.74-3.72,0-7.39-.1-11.07-.1Z"/><path class="cls-1" d="M259.54,120.67c.25-.35.5-.6.94-.5A34.44,34.44,0,0,1,270,125c.35.25.55.45.55.74a1.48,1.48,0,0,1-.2.55,20.21,20.21,0,0,1-2.18,3.77c-.25.3-.45.5-.65.5a1,1,0,0,1-.6-.3,43.5,43.5,0,0,0-10-5.41C258.15,122.91,258.95,121.47,259.54,120.67Zm8,18.41a83.11,83.11,0,0,0,13.6-8.58,90.31,90.31,0,0,0,14.29-13.84,24.74,24.74,0,0,0,1.44,5.56,2.43,2.43,0,0,1,.25.94,1.54,1.54,0,0,1-.55,1.14A92.45,92.45,0,0,1,284,135.76a115.18,115.18,0,0,1-14.84,9.33,16.3,16.3,0,0,0-2.88,1.69,1.1,1.1,0,0,1-.79.4,1.28,1.28,0,0,1-1-.6,31.33,31.33,0,0,1-3.67-5.06A22.94,22.94,0,0,0,267.58,139.08Zm-2-29.82c.35-.6.65-.69,1.24-.4a33.74,33.74,0,0,1,9.33,5.51.79.79,0,0,1,.4.65,1.2,1.2,0,0,1-.2.65,21.21,21.21,0,0,1-2.53,3.72.55.55,0,0,1-.5.3,1.28,1.28,0,0,1-.74-.35,48,48,0,0,0-9.63-6.1C263.76,111.94,264.7,110.55,265.55,109.26Zm22.73-1.54c.25-.2.45-.15.74.1a22.84,22.84,0,0,1,4.71,5.31.5.5,0,0,1-.15.79l-2.08,1.54a.52.52,0,0,1-.84-.15,24.63,24.63,0,0,0-5-5.76Zm4.42-3.23c.3-.2.45-.15.74.1a20.72,20.72,0,0,1,4.71,5.11.57.57,0,0,1-.15.89l-2,1.54a.51.51,0,0,1-.84-.15,23.47,23.47,0,0,0-5-5.71Z"/><path class="cls-1" d="M333,138.84c0,.55-.3.79-.94.89a26.84,26.84,0,0,1-3.52.25c-.45,0-.65-.3-.65-.79,0-1.79,0-4.27,0-6.05-4.42,2.28-6,4.22-6,6.6,0,2.08,1.69,3.42,6.9,3.42a84.81,84.81,0,0,0,12.36-1c.45,0,.65.1.69.55a22.21,22.21,0,0,1,.45,4.07c0,.6-.15.94-.55.94a88.27,88.27,0,0,1-12.31.65c-8.14,0-12.46-2.43-12.46-8.19,0-4.76,3-8.24,10.47-12.11-.15-2.53-.74-3.52-3-3.42s-4.56,1.59-6.85,3.57a66.84,66.84,0,0,0-5,5.41c-.25.3-.4.45-.6.45a1,1,0,0,1-.55-.35,23.62,23.62,0,0,1-2.83-3.27.81.81,0,0,1-.2-.45c0-.2.1-.35.35-.55a50.71,50.71,0,0,0,10.37-12.31c-2.33.1-5,.15-7.94.15-.45,0-.6-.25-.69-.79-.15-.79-.35-2.63-.5-4.12a109.45,109.45,0,0,0,11.41,0,38.19,38.19,0,0,0,1.49-4.27,12.07,12.07,0,0,0,.35-3,31.32,31.32,0,0,1,5.66,1.39.89.89,0,0,1,.6.84,1,1,0,0,1-.35.74,3.86,3.86,0,0,0-.84,1.19c-.3.69-.55,1.34-1.14,2.68a79.83,79.83,0,0,0,9-1.54c.55-.1.69,0,.79.5a16.75,16.75,0,0,1,.5,3.57c0,.5-.15.69-.84.79-3.72.55-8,1.09-11.61,1.49a51.15,51.15,0,0,1-3.72,5.51l0,.1a9.87,9.87,0,0,1,5-1.54c3.28,0,5.56,1.49,6.05,5.36,1.94-.89,4.76-2.18,7.29-3.47a14.93,14.93,0,0,0,3.77-2.68,30.56,30.56,0,0,1,3.47,4.37,2,2,0,0,1,.4,1.09c0,.4-.25.6-.74.69a15.87,15.87,0,0,0-3,.74c-3.23,1.14-6.45,2.23-10.67,4Z"/><path class="cls-1" d="M368.75,109.66a25.43,25.43,0,0,0-.35-4.71c1.89,0,3.57.15,5.16.35.45,0,.74.2.74.5a3.12,3.12,0,0,1-.35,1.09,6.53,6.53,0,0,0-.3,2.73v1.69H376c3.92,0,5.21-.1,5.51-.1.5,0,.55,0,.55.55v3.47c0,.5,0,.55-.55.55-.3,0-1.59-.1-5.51-.1h-2.38v4.52H377c4.61,0,6.15-.1,6.45-.1.5,0,.55,0,.55.55v3.52c0,.55,0,.6-.55.6-.3,0-1.84-.1-6.45-.1h-3.32v4.27h2.58c4.32,0,5.76-.1,6.1-.1s.55,0,.55.55c0,.3-.1,1.84-.1,5v1.74c0,2.78.1,4.27.1,5.61s-.15,2.38-1.14,3.18-2.23.94-4.17.94c-1.54,0-1.54,0-1.79-1.49a9.37,9.37,0,0,0-1.09-3.13,20.06,20.06,0,0,0,2.18.15c.79,0,1.14-.3,1.14-1.24v-6.85h-4.37v6.55c0,6.1.1,9.23.1,9.53s0,.5-.55.5h-4c-.5,0-.55,0-.55-.5s.1-3.37.1-9.48v-6.6h-4.12v7.34c0,3,.1,4.37.1,4.66,0,.5,0,.55-.55.55h-4c-.5,0-.55,0-.55-.55s.1-1.69.1-4.91v-6.5c0-3-.1-4.17-.1-4.52s0-.55.55-.55,1.84.1,6.15.1h2.38v-4.27h-4.17c-4.61,0-6.2.1-6.5.1-.5,0-.55,0-.55-.6v-3.52c0-.5,0-.55.55-.55.3,0,1.89.1,6.5.1h4.17v-4.52H364q-.67,1.56-1.34,2.83c-.35.74-.55,1.09-.89,1.09a2.78,2.78,0,0,1-1.19-.6,12,12,0,0,0-3-1.44,26.9,26.9,0,0,0,3.82-8.78,12.32,12.32,0,0,0,.25-2.33,40.5,40.5,0,0,1,4.32.94c.6.15.74.3.74.6a1.54,1.54,0,0,1-.35.84,4.09,4.09,0,0,0-.5,1.44l-.3,1h3.18Zm17.47,6.6a52.35,52.35,0,0,0-.35-7.34c1.74,0,3.32.15,5,.35.5,0,.74.25.74.55a4,4,0,0,1-.35,1.09,33.85,33.85,0,0,0-.15,5.31v13.7c0,4.22.1,6.25.1,6.55,0,.5,0,.55-.6.55h-4c-.5,0-.55,0-.55-.55,0-.3.1-2.33.1-6.55Zm14.49,16.87c0,3.47.15,7.44.15,9.92s-.35,4.07-1.79,5.06-2.73,1.29-7.1,1.29c-1.49,0-1.49,0-1.84-1.59a14.25,14.25,0,0,0-1.44-3.87,38.38,38.38,0,0,0,4.76.3c1.64,0,2.13-.35,2.13-1.94v-30a40.6,40.6,0,0,0-.4-7,45.65,45.65,0,0,1,5.31.3c.55,0,.84.3.84.55a2.36,2.36,0,0,1-.35,1c-.25.6-.3,1.64-.3,5Z"/><path class="cls-1" d="M421.29,130.35c0-1.84,0-4.07.1-6.25a48.15,48.15,0,0,1-3.72,4.57c-.35.4-.65.6-.84.6s-.5-.25-.65-.84a12.1,12.1,0,0,0-1.84-4.32,45.79,45.79,0,0,0,10.07-16.33,17.94,17.94,0,0,0,.89-3.57c1.79.5,3.42.89,4.81,1.44.59.25.79.45.79.74s-.1.55-.5.89-.6.69-1.09,2.08a69.59,69.59,0,0,1-2.93,6.55v25.85c0,4.86.1,7.29.1,7.54,0,.5,0,.55-.55.55h-4.22c-.5,0-.55,0-.55-.55,0-.3.1-2.68.1-7.54ZM438,117.85a57.58,57.58,0,0,1-6,9c-.45.55-.7.79-.94.79s-.55-.3-.94-1a11.49,11.49,0,0,0-2.38-3,46,46,0,0,0,9.08-15.48,18.24,18.24,0,0,0,.79-3.77c1.84.35,3.38.65,4.91,1.09.6.15.94.4.94.74a1.14,1.14,0,0,1-.45.94,6.34,6.34,0,0,0-1.29,2.43c-.45,1.19-.94,2.43-1.54,3.67h13c4.42,0,5.9-.1,6.15-.1.55,0,.6,0,.6.6v3.62c0,.55,0,.6-.6.6-.25,0-1.74-.1-6.15-.1h-8.09v5.91h6.35c3.92,0,5.21-.1,5.51-.1.5,0,.55,0,.55.55v3.62c0,.5,0,.55-.55.55-.3,0-1.59-.1-5.51-.1h-6.35v6.05h6.35c4,0,5.31-.1,5.61-.1.5,0,.55,0,.55.5v3.67c0,.55,0,.6-.55.6-.3,0-1.64-.1-5.61-.1h-6.35v2.73c0,5,.1,7.49.1,7.74,0,.5,0,.55-.55.55h-4.22c-.5,0-.55,0-.55-.55,0-.3.1-2.78.1-7.74V117.85Z"/><path class="cls-1" d="M482.86,107.72c.84.2,1.19.45,1.19.94a4.82,4.82,0,0,1-.5,1.64c-.25.69-.45,2.23-.7,6.05-.5,7.64-.74,12.7-.74,19.2,0,5,.6,6.15,4.57,6.15,4.42,0,11.31-2.68,17.37-9.13a17.28,17.28,0,0,0,1.14,4.71,3.27,3.27,0,0,1,.4,1.19c0,.45-.2.84-1,1.54a28.35,28.35,0,0,1-18.81,7.44c-6.35,0-9.33-2.53-9.33-10.12,0-8.34.45-15.48.69-21.44a33,33,0,0,0-.5-9.08A51.31,51.31,0,0,1,482.86,107.72Z"/><path class="cls-1" d="M534,129.16a87.82,87.82,0,0,1-10.22-.2c-.54,0-.74-.2-.79-.84a29.51,29.51,0,0,1-.3-4.22,69.82,69.82,0,0,0,11.16.4c0-1.89,0-3.82-.1-5.71a81.65,81.65,0,0,1-11.86-.25c-.55,0-.79-.2-.84-.69-.15-1.24-.25-2.43-.35-4.47a113.49,113.49,0,0,0,13,.5c0-1.84,0-3.13-.1-4.81a14.27,14.27,0,0,0-.59-3.32,28.74,28.74,0,0,1,6.25.89,1,1,0,0,1,.55,1.49,6.38,6.38,0,0,0-.74,2.38c0,1,0,1.69-.1,3.18A83.48,83.48,0,0,0,549.84,112c.6-.15.79,0,.84.6a26.55,26.55,0,0,1,.25,3.62c0,.65-.15.74-.55.79a101.53,101.53,0,0,1-11.46,1.29c0,2,0,3.82,0,5.61,3.77-.25,6.15-.74,9.73-1.29.6-.15.75,0,.79.4,0,.94.15,2.58.15,4.07,0,.5-.2.65-.74.69a89.83,89.83,0,0,1-9.73,1.19c.1,2.28.2,4.71.35,7a44.23,44.23,0,0,1,13.15,6c.5.45.5.6.35,1.19a14.94,14.94,0,0,1-2.18,3.67.73.73,0,0,1-.64.4.76.76,0,0,1-.55-.25,39.38,39.38,0,0,0-9.87-5.66c0,5.36-3.28,7.54-10.07,7.54-6.45,0-10.12-2.83-10.12-6.95s3.92-7,9.92-7c1.24,0,2.43,0,4.76.2C534.16,132.88,534.07,130.85,534,129.16Zm-4.27,10c-3.62,0-5.36,1-5.36,2.63,0,1.29,1.49,2.23,4.91,2.23,2,0,3.82-.6,4.52-1.49a4.77,4.77,0,0,0,.55-2.78A21.4,21.4,0,0,0,529.75,139.18Z"/><path class="cls-1" d="M583.53,109.36a15.71,15.71,0,0,0-.6-3.62,50.43,50.43,0,0,1,5.81.69c.84.15,1.39.5,1.39.94a2.09,2.09,0,0,1-.45,1.14,5.18,5.18,0,0,0-.4,1.44c0,.65,0,1.29-.1,3.18,5.36-.2,10.47-.25,15.23-.25.6,0,.7.1.74.74,0,1.24,0,2.53,0,3.77,0,.55-.25.69-.84.65-5.16-.15-10-.15-15.13-.1,0,3,0,6.2,0,9.23a15.46,15.46,0,0,1,.74,4.91,18.53,18.53,0,0,1-8.83,16,4.73,4.73,0,0,1-1.93.94,2.81,2.81,0,0,1-1.49-.74,11.06,11.06,0,0,0-3.77-2c5.81-2.58,9.28-6.75,10.17-10.92-1,1.44-3,2-4.66,2-3.92,0-6.9-2.83-6.9-7.59a7.23,7.23,0,0,1,7.49-7.44,6.08,6.08,0,0,1,3.77,1c0-1.74,0-3.42,0-5.06-6.25.35-13.25.94-17.17,1.49-1.09.15-1.89.6-2.33.6s-.69-.2-.84-.69a34.78,34.78,0,0,1-1.24-5,32.72,32.72,0,0,0,6.05-.2c3-.25,9.43-.65,15.38-1C583.58,111.94,583.58,110.7,583.53,109.36Zm-6.35,20.1a3.08,3.08,0,0,0,3.18,3.37,3.19,3.19,0,0,0,3.37-3.42,3,3,0,0,0-3.27-3.18A3.16,3.16,0,0,0,577.18,129.46Z"/><path class="cls-1" d="M621,143.75a7.19,7.19,0,1,1-7.2-7.15A7.16,7.16,0,0,1,621,143.75Zm-11.31,0a4.12,4.12,0,1,0,4.12-4.12A4,4,0,0,0,609.68,143.75Z"/><path class="cls-2" d="M13.5,129.37c.45.3.74.6.74.94s-.15.5-.55.79a4.65,4.65,0,0,0-1.24,1.69A38.23,38.23,0,0,1,7,141.08a1.35,1.35,0,0,1-1,.6,1.45,1.45,0,0,1-.74-.3A14.47,14.47,0,0,0,1,139.29a33.15,33.15,0,0,0,6-8.19,11,11,0,0,0,1.34-4A23.12,23.12,0,0,1,13.5,129.37Zm6.6-13.65a38.28,38.28,0,0,0-.55-7.64c2.33.2,4.91.5,6.15.74q.89.15.89.74a1.89,1.89,0,0,1-.3.89c-.45.84-.5,2-.5,5v2.63h6.1c4.32,0,7.69-.2,10.12-.3.45,0,.65.25.65.79a33.56,33.56,0,0,1,0,3.87c0,.65-.2,1-.69.94-3.08-.1-6.85-.25-10.22-.25H25.86l0,10c0,2.63.1,4.76.1,8.63a5.17,5.17,0,0,1-2.93,5.11,15.41,15.41,0,0,1-6.35,1.64c-.6,0-.89-.3-1.19-1A11.6,11.6,0,0,0,12.21,143a24.71,24.71,0,0,0,6.75-.6c.79-.35,1.14-.89,1.14-2.18V123.11H12.31c-2.83,0-6.25.15-8.58.35-.45,0-.65-.4-.65-1,0-.89-.2-3.13-.2-4.76,3.77.3,6.8.35,9.33.35H20.1Zm14.59,11.86a1,1,0,0,1,.65-.25.94.94,0,0,1,.74.45,38.25,38.25,0,0,1,7.1,9.08,1.31,1.31,0,0,1,.25.74,1,1,0,0,1-.5.79,27.56,27.56,0,0,1-3.32,2.48,1.63,1.63,0,0,1-.6.3c-.2,0-.35-.15-.55-.5a48.13,48.13,0,0,0-7.54-10.42C32.26,129.27,33.55,128.42,34.69,127.58Z"/><path class="cls-2" d="M64.31,131.65a39.69,39.69,0,0,0-7.29.6c-.6,0-1-.3-1.14-1a53.82,53.82,0,0,1-.74-6,63.73,63.73,0,0,0,10.72.6h16c3.77,0,7.59-.1,11.41-.15.74,0,.89.1.89.69a36.62,36.62,0,0,1,0,4.66c0,.6-.2.79-.89.74-3.72,0-7.39-.1-11.07-.1Z"/><path class="cls-2" d="M125.74,110.56c.35.25.6.5.6.79a1.67,1.67,0,0,1-.5,1,15.94,15.94,0,0,0-2,4.12c-2.78,7.59-5.41,14.89-8.53,22.33,7.64-.65,11.81-1,17.37-1.89a49.45,49.45,0,0,0-5.51-7.94c1.49-.79,2.93-1.64,4.32-2.38.55-.3.84-.1,1.19.3a69.78,69.78,0,0,1,10,16.23,1.2,1.2,0,0,1,.2.65c0,.3-.2.6-.65.84a25,25,0,0,1-3.77,2,1.32,1.32,0,0,1-.6.15c-.3,0-.55-.25-.69-.69-.6-1.39-1.14-2.68-1.74-4-7.94,1.19-15.48,2-23.57,2.88-3.28.35-4.62.6-5.81,1.19-.65.3-1.19.2-1.44-.5a46.25,46.25,0,0,1-1.74-6.4c2,.15,4.07.1,6.05,0,3.52-8.88,6.1-16.23,8.68-24.56A26.46,26.46,0,0,0,119,108,26.94,26.94,0,0,1,125.74,110.56Z"/><path class="cls-2" d="M158,127.23c2.43-2.48,4.86-5,7.2-7.49,2-2.08,2.93-2.63,4.47-2.63s2.48.4,4.32,2a157.61,157.61,0,0,0,22.23,16.13.87.87,0,0,1,.45,1.34,29.09,29.09,0,0,1-2.58,4.32c-.25.35-.5.55-.74.55a.83.83,0,0,1-.55-.2,224.83,224.83,0,0,1-22-17.32,1.23,1.23,0,0,0-.79-.35,1,1,0,0,0-.79.4c-2.43,2.53-4.66,5.21-8.09,9a16.27,16.27,0,0,0-2,2.53,1.13,1.13,0,0,1-.89.65,1,1,0,0,1-.69-.35,57.12,57.12,0,0,1-4.61-4.37A22.85,22.85,0,0,0,158,127.23Zm35.08-11.46a5.36,5.36,0,0,1-10.72,0,5.23,5.23,0,0,1,5.36-5.31A5.3,5.3,0,0,1,193.12,115.77Zm-8.29,0a2.93,2.93,0,1,0,2.93-2.93A2.84,2.84,0,0,0,184.83,115.77Z"/><path class="cls-2" d="M216.48,131.65a39.69,39.69,0,0,0-7.29.6c-.6,0-1-.3-1.14-1a53.82,53.82,0,0,1-.74-6,63.73,63.73,0,0,0,10.72.6h16c3.77,0,7.59-.1,11.41-.15.74,0,.89.1.89.69a36.62,36.62,0,0,1,0,4.66c0,.6-.2.79-.89.74-3.72,0-7.39-.1-11.07-.1Z"/><path class="cls-2" d="M260.54,121.67c.25-.35.5-.6.94-.5A34.44,34.44,0,0,1,271,126c.35.25.55.45.55.74a1.48,1.48,0,0,1-.2.55,20.21,20.21,0,0,1-2.18,3.77c-.25.3-.45.5-.65.5a1,1,0,0,1-.6-.3,43.5,43.5,0,0,0-10-5.41C259.15,123.91,259.95,122.47,260.54,121.67Zm8,18.41a83.11,83.11,0,0,0,13.6-8.58,90.31,90.31,0,0,0,14.29-13.84,24.74,24.74,0,0,0,1.44,5.56,2.43,2.43,0,0,1,.25.94,1.54,1.54,0,0,1-.55,1.14A92.45,92.45,0,0,1,285,136.76a115.18,115.18,0,0,1-14.84,9.33,16.3,16.3,0,0,0-2.88,1.69,1.1,1.1,0,0,1-.79.4,1.28,1.28,0,0,1-1-.6,31.33,31.33,0,0,1-3.67-5.06A22.94,22.94,0,0,0,268.58,140.08Zm-2-29.82c.35-.6.65-.69,1.24-.4a33.74,33.74,0,0,1,9.33,5.51.79.79,0,0,1,.4.65,1.2,1.2,0,0,1-.2.65,21.21,21.21,0,0,1-2.53,3.72.55.55,0,0,1-.5.3,1.28,1.28,0,0,1-.74-.35,48,48,0,0,0-9.63-6.1C264.76,112.94,265.7,111.55,266.55,110.26Zm22.73-1.54c.25-.2.45-.15.74.1a22.84,22.84,0,0,1,4.71,5.31.5.5,0,0,1-.15.79l-2.08,1.54a.52.52,0,0,1-.84-.15,24.63,24.63,0,0,0-5-5.76Zm4.42-3.23c.3-.2.45-.15.74.1a20.72,20.72,0,0,1,4.71,5.11.57.57,0,0,1-.15.89l-2,1.54a.51.51,0,0,1-.84-.15,23.47,23.47,0,0,0-5-5.71Z"/><path class="cls-2" d="M334,139.84c0,.55-.3.79-.94.89a26.84,26.84,0,0,1-3.52.25c-.45,0-.65-.3-.65-.79,0-1.79,0-4.27,0-6.05-4.42,2.28-6,4.22-6,6.6,0,2.08,1.69,3.42,6.9,3.42a84.81,84.81,0,0,0,12.36-1c.45,0,.65.1.69.55a22.21,22.21,0,0,1,.45,4.07c0,.6-.15.94-.55.94a88.27,88.27,0,0,1-12.31.65c-8.14,0-12.46-2.43-12.46-8.19,0-4.76,3-8.24,10.47-12.11-.15-2.53-.74-3.52-3-3.42s-4.56,1.59-6.85,3.57a66.84,66.84,0,0,0-5,5.41c-.25.3-.4.45-.6.45a1,1,0,0,1-.55-.35,23.62,23.62,0,0,1-2.83-3.27.81.81,0,0,1-.2-.45c0-.2.1-.35.35-.55a50.71,50.71,0,0,0,10.37-12.31c-2.33.1-5,.15-7.94.15-.45,0-.6-.25-.69-.79-.15-.79-.35-2.63-.5-4.12a109.45,109.45,0,0,0,11.41,0,38.19,38.19,0,0,0,1.49-4.27,12.07,12.07,0,0,0,.35-3,31.32,31.32,0,0,1,5.66,1.39.89.89,0,0,1,.6.84,1,1,0,0,1-.35.74,3.86,3.86,0,0,0-.84,1.19c-.3.69-.55,1.34-1.14,2.68a79.83,79.83,0,0,0,9-1.54c.55-.1.69,0,.79.5a16.75,16.75,0,0,1,.5,3.57c0,.5-.15.69-.84.79-3.72.55-8,1.09-11.61,1.49a51.15,51.15,0,0,1-3.72,5.51l0,.1a9.87,9.87,0,0,1,5-1.54c3.28,0,5.56,1.49,6.05,5.36,1.94-.89,4.76-2.18,7.29-3.47a14.93,14.93,0,0,0,3.77-2.68,30.56,30.56,0,0,1,3.47,4.37,2,2,0,0,1,.4,1.09c0,.4-.25.6-.74.69a15.87,15.87,0,0,0-3,.74c-3.23,1.14-6.45,2.23-10.67,4Z"/><path class="cls-2" d="M369.75,110.66a25.43,25.43,0,0,0-.35-4.71c1.89,0,3.57.15,5.16.35.45,0,.74.2.74.5a3.12,3.12,0,0,1-.35,1.09,6.53,6.53,0,0,0-.3,2.73v1.69H377c3.92,0,5.21-.1,5.51-.1.5,0,.55,0,.55.55v3.47c0,.5,0,.55-.55.55-.3,0-1.59-.1-5.51-.1h-2.38v4.52H378c4.61,0,6.15-.1,6.45-.1.5,0,.55,0,.55.55v3.52c0,.55,0,.6-.55.6-.3,0-1.84-.1-6.45-.1h-3.32v4.27h2.58c4.32,0,5.76-.1,6.1-.1s.55,0,.55.55c0,.3-.1,1.84-.1,5v1.74c0,2.78.1,4.27.1,5.61s-.15,2.38-1.14,3.18-2.23.94-4.17.94c-1.54,0-1.54,0-1.79-1.49a9.37,9.37,0,0,0-1.09-3.13,20.06,20.06,0,0,0,2.18.15c.79,0,1.14-.3,1.14-1.24v-6.85h-4.37v6.55c0,6.1.1,9.23.1,9.53s0,.5-.55.5h-4c-.5,0-.55,0-.55-.5s.1-3.37.1-9.48v-6.6h-4.12v7.34c0,3,.1,4.37.1,4.66,0,.5,0,.55-.55.55h-4c-.5,0-.55,0-.55-.55s.1-1.69.1-4.91v-6.5c0-3-.1-4.17-.1-4.52s0-.55.55-.55,1.84.1,6.15.1h2.38v-4.27h-4.17c-4.61,0-6.2.1-6.5.1-.5,0-.55,0-.55-.6v-3.52c0-.5,0-.55.55-.55.3,0,1.89.1,6.5.1h4.17v-4.52H365q-.67,1.56-1.34,2.83c-.35.74-.55,1.09-.89,1.09a2.78,2.78,0,0,1-1.19-.6,12,12,0,0,0-3-1.44,26.9,26.9,0,0,0,3.82-8.78,12.32,12.32,0,0,0,.25-2.33,40.5,40.5,0,0,1,4.32.94c.6.15.74.3.74.6a1.54,1.54,0,0,1-.35.84,4.09,4.09,0,0,0-.5,1.44l-.3,1h3.18Zm17.47,6.6a52.35,52.35,0,0,0-.35-7.34c1.74,0,3.32.15,5,.35.5,0,.74.25.74.55a4,4,0,0,1-.35,1.09,33.85,33.85,0,0,0-.15,5.31v13.7c0,4.22.1,6.25.1,6.55,0,.5,0,.55-.6.55h-4c-.5,0-.55,0-.55-.55,0-.3.1-2.33.1-6.55Zm14.49,16.87c0,3.47.15,7.44.15,9.92s-.35,4.07-1.79,5.06-2.73,1.29-7.1,1.29c-1.49,0-1.49,0-1.84-1.59a14.25,14.25,0,0,0-1.44-3.87,38.38,38.38,0,0,0,4.76.3c1.64,0,2.13-.35,2.13-1.94v-30a40.6,40.6,0,0,0-.4-7,45.65,45.65,0,0,1,5.31.3c.55,0,.84.3.84.55a2.36,2.36,0,0,1-.35,1c-.25.6-.3,1.64-.3,5Z"/><path class="cls-2" d="M422.29,131.35c0-1.84,0-4.07.1-6.25a48.15,48.15,0,0,1-3.72,4.57c-.35.4-.65.6-.84.6s-.5-.25-.65-.84a12.1,12.1,0,0,0-1.84-4.32,45.79,45.79,0,0,0,10.07-16.33,17.94,17.94,0,0,0,.89-3.57c1.79.5,3.42.89,4.81,1.44.59.25.79.45.79.74s-.1.55-.5.89-.6.69-1.09,2.08a69.59,69.59,0,0,1-2.93,6.55v25.85c0,4.86.1,7.29.1,7.54,0,.5,0,.55-.55.55h-4.22c-.5,0-.55,0-.55-.55,0-.3.1-2.68.1-7.54ZM439,118.85a57.58,57.58,0,0,1-6,9c-.45.55-.7.79-.94.79s-.55-.3-.94-1a11.49,11.49,0,0,0-2.38-3,46,46,0,0,0,9.08-15.48,18.24,18.24,0,0,0,.79-3.77c1.84.35,3.38.65,4.91,1.09.6.15.94.4.94.74a1.14,1.14,0,0,1-.45.94,6.34,6.34,0,0,0-1.29,2.43c-.45,1.19-.94,2.43-1.54,3.67h13c4.42,0,5.9-.1,6.15-.1.55,0,.6,0,.6.6v3.62c0,.55,0,.6-.6.6-.25,0-1.74-.1-6.15-.1h-8.09v5.91h6.35c3.92,0,5.21-.1,5.51-.1.5,0,.55,0,.55.55v3.62c0,.5,0,.55-.55.55-.3,0-1.59-.1-5.51-.1h-6.35v6.05h6.35c4,0,5.31-.1,5.61-.1.5,0,.55,0,.55.5v3.67c0,.55,0,.6-.55.6-.3,0-1.64-.1-5.61-.1h-6.35v2.73c0,5,.1,7.49.1,7.74,0,.5,0,.55-.55.55h-4.22c-.5,0-.55,0-.55-.55,0-.3.1-2.78.1-7.74V118.85Z"/><path class="cls-2" d="M483.86,108.72c.84.2,1.19.45,1.19.94a4.82,4.82,0,0,1-.5,1.64c-.25.69-.45,2.23-.7,6.05-.5,7.64-.74,12.7-.74,19.2,0,5,.6,6.15,4.57,6.15,4.42,0,11.31-2.68,17.37-9.13a17.28,17.28,0,0,0,1.14,4.71,3.27,3.27,0,0,1,.4,1.19c0,.45-.2.84-1,1.54a28.35,28.35,0,0,1-18.81,7.44c-6.35,0-9.33-2.53-9.33-10.12,0-8.34.45-15.48.69-21.44a33,33,0,0,0-.5-9.08A51.31,51.31,0,0,1,483.86,108.72Z"/><path class="cls-2" d="M535,130.16a87.82,87.82,0,0,1-10.22-.2c-.54,0-.74-.2-.79-.84a29.51,29.51,0,0,1-.3-4.22,69.82,69.82,0,0,0,11.16.4c0-1.89,0-3.82-.1-5.71a81.65,81.65,0,0,1-11.86-.25c-.55,0-.79-.2-.84-.69-.15-1.24-.25-2.43-.35-4.47a113.49,113.49,0,0,0,13,.5c0-1.84,0-3.13-.1-4.81a14.27,14.27,0,0,0-.59-3.32,28.74,28.74,0,0,1,6.25.89,1,1,0,0,1,.55,1.49,6.38,6.38,0,0,0-.74,2.38c0,1,0,1.69-.1,3.18A83.48,83.48,0,0,0,550.84,113c.6-.15.79,0,.84.6a26.55,26.55,0,0,1,.25,3.62c0,.65-.15.74-.55.79a101.53,101.53,0,0,1-11.46,1.29c0,2,0,3.82,0,5.61,3.77-.25,6.15-.74,9.73-1.29.6-.15.75,0,.79.4,0,.94.15,2.58.15,4.07,0,.5-.2.65-.74.69a89.83,89.83,0,0,1-9.73,1.19c.1,2.28.2,4.71.35,7a44.23,44.23,0,0,1,13.15,6c.5.45.5.6.35,1.19a14.94,14.94,0,0,1-2.18,3.67.73.73,0,0,1-.64.4.76.76,0,0,1-.55-.25,39.38,39.38,0,0,0-9.87-5.66c0,5.36-3.28,7.54-10.07,7.54-6.45,0-10.12-2.83-10.12-6.95s3.92-7,9.92-7c1.24,0,2.43,0,4.76.2C535.16,133.88,535.07,131.85,535,130.16Zm-4.27,10c-3.62,0-5.36,1-5.36,2.63,0,1.29,1.49,2.23,4.91,2.23,2,0,3.82-.6,4.52-1.49a4.77,4.77,0,0,0,.55-2.78A21.4,21.4,0,0,0,530.75,140.18Z"/><path class="cls-2" d="M584.53,110.36a15.71,15.71,0,0,0-.6-3.62,50.43,50.43,0,0,1,5.81.69c.84.15,1.39.5,1.39.94a2.09,2.09,0,0,1-.45,1.14,5.18,5.18,0,0,0-.4,1.44c0,.65,0,1.29-.1,3.18,5.36-.2,10.47-.25,15.23-.25.6,0,.7.1.74.74,0,1.24,0,2.53,0,3.77,0,.55-.25.69-.84.65-5.16-.15-10-.15-15.13-.1,0,3,0,6.2,0,9.23a15.46,15.46,0,0,1,.74,4.91,18.53,18.53,0,0,1-8.83,16,4.73,4.73,0,0,1-1.93.94,2.81,2.81,0,0,1-1.49-.74,11.06,11.06,0,0,0-3.77-2c5.81-2.58,9.28-6.75,10.17-10.92-1,1.44-3,2-4.66,2-3.92,0-6.9-2.83-6.9-7.59a7.23,7.23,0,0,1,7.49-7.44,6.08,6.08,0,0,1,3.77,1c0-1.74,0-3.42,0-5.06-6.25.35-13.25.94-17.17,1.49-1.09.15-1.89.6-2.33.6s-.69-.2-.84-.69a34.78,34.78,0,0,1-1.24-5,32.72,32.72,0,0,0,6.05-.2c3-.25,9.43-.65,15.38-1C584.58,112.94,584.58,111.7,584.53,110.36Zm-6.35,20.1a3.08,3.08,0,0,0,3.18,3.37,3.19,3.19,0,0,0,3.37-3.42,3,3,0,0,0-3.27-3.18A3.16,3.16,0,0,0,578.18,130.46Z"/><path class="cls-2" d="M622,144.75a7.19,7.19,0,1,1-7.2-7.15A7.16,7.16,0,0,1,622,144.75Zm-11.31,0a4.12,4.12,0,1,0,4.12-4.12A4,4,0,0,0,610.68,144.75Z"/><g class="cls-3"><path d="M225.27,68.23c-5.62,0-7.55.12-7.93.12-.62,0-.69-.06-.69-.69v-4c0-.56.06-.62.69-.62.37,0,2.31.12,7.93.12h15.17v-.31c0-1,0-2.12-.06-3.18h-7.74c-6.12,0-8.36.12-8.74.12-.62,0-.69-.06-.69-.75,0-.37.13-2.43.13-7.05V42.07c-1.19,1.19-2.43,2.37-3.68,3.5-.62.56-1,.81-1.31.81s-.62-.44-1.06-1.31a13.78,13.78,0,0,0-2.56-3.62,37.93,37.93,0,0,0,11.42-12.17,17.28,17.28,0,0,0,1.69-3.87,50.18,50.18,0,0,1,5.87,1.44c.56.19.81.5.81.87a1,1,0,0,1-.56.94,10.16,10.16,0,0,0-1.69,2l-1.06,1.56h11.49a27.63,27.63,0,0,0,1.69-3.31,17.84,17.84,0,0,0,1-3.25A60.5,60.5,0,0,1,251.3,27a.94.94,0,0,1,.75.87,1.34,1.34,0,0,1-.62.94,6.05,6.05,0,0,0-1.19,1.56c-.37.69-.69,1.31-1.06,1.87h9.49c6.06,0,8.05-.12,8.49-.12.62,0,.69.06.69.62v3.68c0,.69-.06.75-.69.75-.44,0-2.43-.12-8.49-.12h-10.8v3.12h7.87c6,0,8.05-.12,8.43-.12.69,0,.75.06.75.69v3.12c0,.62-.06.69-.75.69-.37,0-2.43-.12-8.43-.12h-7.87V47.5h7.87c6,0,8.05-.12,8.43-.12.69,0,.75.06.75.69v3.06c0,.62-.06.69-.75.69-.37,0-2.43-.12-8.43-.12h-7.87V55h11.36c6.12,0,8.24-.12,8.61-.12.62,0,.69.06.69.69v3.5c0,.69-.06.75-.69.75-.37,0-2.5-.12-8.61-.12h-12l-.19.37a8.3,8.3,0,0,0-.19,2.75v.37H262.6c5.62,0,7.55-.12,7.93-.12.62,0,.69.06.69.62v4c0,.62-.06.69-.69.69-.37,0-2.31-.12-7.93-.12H250.87c5.81,3.87,12.8,6.3,21.6,7.87A12.89,12.89,0,0,0,270,80.28c-.5,1.25-.69,1.69-1.25,1.69a6,6,0,0,1-1.44-.31c-8.49-2.56-15.54-6.24-20.66-11,0,6.93.25,10.55.25,11.86,0,.62-.06.69-.62.69h-5.37c-.56,0-.62-.06-.62-.69,0-1.31.19-4.81.25-11.67-4.93,4.93-12.42,8.43-20.23,10.74a7.32,7.32,0,0,1-1.5.37c-.56,0-.81-.44-1.25-1.62a11.79,11.79,0,0,0-2.25-3.81c8.36-1.87,15.11-4.24,20.72-8.24Zm16.79-28.09V37H229.46v3.12Zm0,7.37V44.38H229.46V47.5Zm0,7.49V51.69H229.46V55Z"/><path d="M334.88,31.46c5.81,0,7.87-.12,8.24-.12.62,0,.69.06.69.69,0,.37-.12,1.44-.12,3v2.56c0,5.31.13,6.3.13,6.68,0,.62-.06.69-.69.69H338c-.62,0-.69-.06-.69-.69V37H310.79c1.75.31,3.5.81,5.06,1.25.56.19.87.37.87.75s-.31.62-.75.87a4.59,4.59,0,0,0-1.19,1.25l-.5.62h13.23a4,4,0,0,0,1.56-.25,2.68,2.68,0,0,1,.87-.25c.37,0,.94.25,2.5,1.94s1.75,2.12,1.75,2.75-.19.81-.81,1.06a11.06,11.06,0,0,0-2.18,1.81,65.27,65.27,0,0,1-7.68,6.3,95.4,95.4,0,0,0,23.22,5.24A15,15,0,0,0,344.37,65c-.5,1.56-.5,1.56-2.43,1.19q-3.56-.66-6.74-1.5c-.06.75-.12,2.12-.12,4.43V74c0,6.49.13,8.12.13,8.43,0,.62-.06.69-.69.69h-5.06c-.62,0-.69-.06-.69-.69V80.53H306.54v1.81c0,.69-.06.75-.69.75h-5c-.69,0-.75-.06-.75-.75,0-.31.13-1.94.13-8.3V69.79c0-2.12-.06-3.56-.06-4.43-2,.56-4,1.06-6.18,1.56-1.94.44-1.94.44-2.62-1.19A14,14,0,0,0,289,61.8c9.55-1.56,16.92-3.62,23.1-6.49a59.7,59.7,0,0,1-6.68-5.18,58.59,58.59,0,0,1-7.62,4.62,5.3,5.3,0,0,1-1.5.62c-.37,0-.56-.31-1-1a11.25,11.25,0,0,0-3-3.31c7.68-3.43,12.3-6.68,16.11-11.17A17.15,17.15,0,0,0,310.29,37H297.56v7.3c0,.62-.06.69-.69.69h-5.12c-.62,0-.69-.06-.69-.69,0-.44.13-1.37.13-6.68V35.52c0-2.06-.12-3.06-.12-3.5,0-.62.06-.69.69-.69.37,0,2.43.12,8.24.12h13.73v-1a19.53,19.53,0,0,0-.44-4.68c2.19.06,4.56.19,6.68.37.69.06,1,.31,1,.62a2.91,2.91,0,0,1-.37,1.19,7.46,7.46,0,0,0-.31,2.56v.94Zm-3.62,32.21a74.36,74.36,0,0,1-13.42-5.12,74.36,74.36,0,0,1-12,5.12ZM306.54,75.41h22.22V68.73H306.54Zm2.93-28.65a47.1,47.1,0,0,0,8.18,5.56A53.83,53.83,0,0,0,325,46.63H309.6Z"/><path d="M226.27,69.23c-5.62,0-7.55.12-7.93.12-.62,0-.69-.06-.69-.69v-4c0-.56.06-.62.69-.62.37,0,2.31.12,7.93.12h15.17v-.31c0-1,0-2.12-.06-3.18h-7.74c-6.12,0-8.36.12-8.74.12-.62,0-.69-.06-.69-.75,0-.37.13-2.43.13-7.05V43.07c-1.19,1.19-2.43,2.37-3.68,3.5-.62.56-1,.81-1.31.81s-.62-.44-1.06-1.31a13.78,13.78,0,0,0-2.56-3.62,37.93,37.93,0,0,0,11.42-12.17,17.28,17.28,0,0,0,1.69-3.87,50.18,50.18,0,0,1,5.87,1.44c.56.19.81.5.81.87a1,1,0,0,1-.56.94,10.16,10.16,0,0,0-1.69,2l-1.06,1.56h11.49a27.63,27.63,0,0,0,1.69-3.31,17.84,17.84,0,0,0,1-3.25A60.5,60.5,0,0,1,252.3,28a.94.94,0,0,1,.75.87,1.34,1.34,0,0,1-.62.94,6.05,6.05,0,0,0-1.19,1.56c-.37.69-.69,1.31-1.06,1.87h9.49c6.06,0,8.05-.12,8.49-.12.62,0,.69.06.69.62v3.68c0,.69-.06.75-.69.75-.44,0-2.43-.12-8.49-.12h-10.8v3.12h7.87c6,0,8.05-.12,8.43-.12.69,0,.75.06.75.69v3.12c0,.62-.06.69-.75.69-.37,0-2.43-.12-8.43-.12h-7.87V48.5h7.87c6,0,8.05-.12,8.43-.12.69,0,.75.06.75.69v3.06c0,.62-.06.69-.75.69-.37,0-2.43-.12-8.43-.12h-7.87V56h11.36c6.12,0,8.24-.12,8.61-.12.62,0,.69.06.69.69v3.5c0,.69-.06.75-.69.75-.37,0-2.5-.12-8.61-.12h-12l-.19.37a8.3,8.3,0,0,0-.19,2.75v.37H263.6c5.62,0,7.55-.12,7.93-.12.62,0,.69.06.69.62v4c0,.62-.06.69-.69.69-.37,0-2.31-.12-7.93-.12H251.87c5.81,3.87,12.8,6.3,21.6,7.87A12.89,12.89,0,0,0,271,81.28c-.5,1.25-.69,1.69-1.25,1.69a6,6,0,0,1-1.44-.31c-8.49-2.56-15.54-6.24-20.66-11,0,6.93.25,10.55.25,11.86,0,.62-.06.69-.62.69h-5.37c-.56,0-.62-.06-.62-.69,0-1.31.19-4.81.25-11.67-4.93,4.93-12.42,8.43-20.23,10.74a7.32,7.32,0,0,1-1.5.37c-.56,0-.81-.44-1.25-1.62a11.79,11.79,0,0,0-2.25-3.81c8.36-1.87,15.11-4.24,20.72-8.24Zm16.79-28.09V38H230.46v3.12Zm0,7.37V45.38H230.46V48.5Zm0,7.49V52.69H230.46V56Z"/><path d="M335.88,32.46c5.81,0,7.87-.12,8.24-.12.62,0,.69.06.69.69,0,.37-.12,1.44-.12,3v2.56c0,5.31.13,6.3.13,6.68,0,.62-.06.69-.69.69H339c-.62,0-.69-.06-.69-.69V38H311.79c1.75.31,3.5.81,5.06,1.25.56.19.87.37.87.75s-.31.62-.75.87a4.59,4.59,0,0,0-1.19,1.25l-.5.62h13.23a4,4,0,0,0,1.56-.25,2.68,2.68,0,0,1,.87-.25c.37,0,.94.25,2.5,1.94s1.75,2.12,1.75,2.75-.19.81-.81,1.06a11.06,11.06,0,0,0-2.18,1.81,65.27,65.27,0,0,1-7.68,6.3,95.4,95.4,0,0,0,23.22,5.24A15,15,0,0,0,345.37,66c-.5,1.56-.5,1.56-2.43,1.19q-3.56-.66-6.74-1.5c-.06.75-.12,2.12-.12,4.43V75c0,6.49.13,8.12.13,8.43,0,.62-.06.69-.69.69h-5.06c-.62,0-.69-.06-.69-.69V81.53H307.54v1.81c0,.69-.06.75-.69.75h-5c-.69,0-.75-.06-.75-.75,0-.31.13-1.94.13-8.3V70.79c0-2.12-.06-3.56-.06-4.43-2,.56-4,1.06-6.18,1.56-1.94.44-1.94.44-2.62-1.19A14,14,0,0,0,290,62.8c9.55-1.56,16.92-3.62,23.1-6.49a59.7,59.7,0,0,1-6.68-5.18,58.59,58.59,0,0,1-7.62,4.62,5.3,5.3,0,0,1-1.5.62c-.37,0-.56-.31-1-1a11.25,11.25,0,0,0-3-3.31c7.68-3.43,12.3-6.68,16.11-11.17A17.15,17.15,0,0,0,311.29,38H298.56v7.3c0,.62-.06.69-.69.69h-5.12c-.62,0-.69-.06-.69-.69,0-.44.13-1.37.13-6.68V36.52c0-2.06-.12-3.06-.12-3.5,0-.62.06-.69.69-.69.37,0,2.43.12,8.24.12h13.73v-1a19.53,19.53,0,0,0-.44-4.68c2.19.06,4.56.19,6.68.37.69.06,1,.31,1,.62a2.91,2.91,0,0,1-.37,1.19,7.46,7.46,0,0,0-.31,2.56v.94Zm-3.62,32.21a74.36,74.36,0,0,1-13.42-5.12,74.36,74.36,0,0,1-12,5.12ZM307.54,76.41h22.22V69.73H307.54Zm2.93-28.65a47.1,47.1,0,0,0,8.18,5.56A53.83,53.83,0,0,0,326,47.63H310.6Z"/></g><path class="cls-1" d="M224.27,67.23c-5.62,0-7.55.12-7.93.12-.62,0-.69-.06-.69-.69v-4c0-.56.06-.62.69-.62.37,0,2.31.12,7.93.12h15.17v-.31c0-1,0-2.12-.06-3.18h-7.74c-6.12,0-8.36.12-8.74.12-.62,0-.69-.06-.69-.75,0-.37.13-2.43.13-7.05V41.07c-1.19,1.19-2.43,2.37-3.68,3.5-.62.56-1,.81-1.31.81s-.62-.44-1.06-1.31a13.78,13.78,0,0,0-2.56-3.62,37.93,37.93,0,0,0,11.42-12.17,17.28,17.28,0,0,0,1.69-3.87,50.18,50.18,0,0,1,5.87,1.44c.56.19.81.5.81.87a1,1,0,0,1-.56.94,10.16,10.16,0,0,0-1.69,2l-1.06,1.56h11.49a27.63,27.63,0,0,0,1.69-3.31,17.84,17.84,0,0,0,1-3.25A60.5,60.5,0,0,1,250.3,26a.94.94,0,0,1,.75.87,1.34,1.34,0,0,1-.62.94,6.05,6.05,0,0,0-1.19,1.56c-.37.69-.69,1.31-1.06,1.87h9.49c6.06,0,8.05-.12,8.49-.12.62,0,.69.06.69.62v3.68c0,.69-.06.75-.69.75-.44,0-2.43-.12-8.49-.12h-10.8v3.12h7.87c6,0,8.05-.12,8.43-.12.69,0,.75.06.75.69v3.12c0,.62-.06.69-.75.69-.37,0-2.43-.12-8.43-.12h-7.87V46.5h7.87c6,0,8.05-.12,8.43-.12.69,0,.75.06.75.69v3.06c0,.62-.06.69-.75.69-.37,0-2.43-.12-8.43-.12h-7.87V54h11.36c6.12,0,8.24-.12,8.61-.12.62,0,.69.06.69.69v3.5c0,.69-.06.75-.69.75-.37,0-2.5-.12-8.61-.12h-12l-.19.37a8.3,8.3,0,0,0-.19,2.75v.37H261.6c5.62,0,7.55-.12,7.93-.12.62,0,.69.06.69.62v4c0,.62-.06.69-.69.69-.37,0-2.31-.12-7.93-.12H249.87c5.81,3.87,12.8,6.3,21.6,7.87A12.89,12.89,0,0,0,269,79.28c-.5,1.25-.69,1.69-1.25,1.69a6,6,0,0,1-1.44-.31c-8.49-2.56-15.54-6.24-20.66-11,0,6.93.25,10.55.25,11.86,0,.62-.06.69-.62.69h-5.37c-.56,0-.62-.06-.62-.69,0-1.31.19-4.81.25-11.67-4.93,4.93-12.42,8.43-20.23,10.74a7.32,7.32,0,0,1-1.5.37c-.56,0-.81-.44-1.25-1.62a11.79,11.79,0,0,0-2.25-3.81c8.36-1.87,15.11-4.24,20.72-8.24Zm16.79-28.09V36H228.46v3.12Zm0,7.37V43.38H228.46V46.5Zm0,7.49V50.69H228.46V54Z"/><path class="cls-1" d="M333.88,30.46c5.81,0,7.87-.12,8.24-.12.62,0,.69.06.69.69,0,.37-.12,1.44-.12,3v2.56c0,5.31.13,6.3.13,6.68,0,.62-.06.69-.69.69H337c-.62,0-.69-.06-.69-.69V36H309.79c1.75.31,3.5.81,5.06,1.25.56.19.87.37.87.75s-.31.62-.75.87a4.59,4.59,0,0,0-1.19,1.25l-.5.62h13.23a4,4,0,0,0,1.56-.25,2.68,2.68,0,0,1,.87-.25c.37,0,.94.25,2.5,1.94s1.75,2.12,1.75,2.75-.19.81-.81,1.06a11.06,11.06,0,0,0-2.18,1.81,65.27,65.27,0,0,1-7.68,6.3,95.4,95.4,0,0,0,23.22,5.24A15,15,0,0,0,343.37,64c-.5,1.56-.5,1.56-2.43,1.19q-3.56-.66-6.74-1.5c-.06.75-.12,2.12-.12,4.43V73c0,6.49.13,8.12.13,8.43,0,.62-.06.69-.69.69h-5.06c-.62,0-.69-.06-.69-.69V79.53H305.54v1.81c0,.69-.06.75-.69.75h-5c-.69,0-.75-.06-.75-.75,0-.31.13-1.94.13-8.3V68.79c0-2.12-.06-3.56-.06-4.43-2,.56-4,1.06-6.18,1.56-1.94.44-1.94.44-2.62-1.19A14,14,0,0,0,288,60.8c9.55-1.56,16.92-3.62,23.1-6.49a59.7,59.7,0,0,1-6.68-5.18,58.59,58.59,0,0,1-7.62,4.62,5.3,5.3,0,0,1-1.5.62c-.37,0-.56-.31-1-1a11.25,11.25,0,0,0-3-3.31c7.68-3.43,12.3-6.68,16.11-11.17A17.15,17.15,0,0,0,309.29,36H296.56v7.3c0,.62-.06.69-.69.69h-5.12c-.62,0-.69-.06-.69-.69,0-.44.13-1.37.13-6.68V34.52c0-2.06-.12-3.06-.12-3.5,0-.62.06-.69.69-.69.37,0,2.43.12,8.24.12h13.73v-1a19.53,19.53,0,0,0-.44-4.68c2.19.06,4.56.19,6.68.37.69.06,1,.31,1,.62a2.91,2.91,0,0,1-.37,1.19,7.46,7.46,0,0,0-.31,2.56v.94Zm-3.62,32.21a74.36,74.36,0,0,1-13.42-5.12,74.36,74.36,0,0,1-12,5.12ZM305.54,74.41h22.22V67.73H305.54Zm2.93-28.65a47.1,47.1,0,0,0,8.18,5.56A53.83,53.83,0,0,0,324,45.63H308.6Z"/><path class="cls-4" d="M225.27,68.23c-5.62,0-7.55.12-7.93.12-.62,0-.69-.06-.69-.69v-4c0-.56.06-.62.69-.62.37,0,2.31.12,7.93.12h15.17v-.31c0-1,0-2.12-.06-3.18h-7.74c-6.12,0-8.36.12-8.74.12-.62,0-.69-.06-.69-.75,0-.37.13-2.43.13-7.05V42.07c-1.19,1.19-2.43,2.37-3.68,3.5-.62.56-1,.81-1.31.81s-.62-.44-1.06-1.31a13.78,13.78,0,0,0-2.56-3.62,37.93,37.93,0,0,0,11.42-12.17,17.28,17.28,0,0,0,1.69-3.87,50.18,50.18,0,0,1,5.87,1.44c.56.19.81.5.81.87a1,1,0,0,1-.56.94,10.16,10.16,0,0,0-1.69,2l-1.06,1.56h11.49a27.63,27.63,0,0,0,1.69-3.31,17.84,17.84,0,0,0,1-3.25A60.5,60.5,0,0,1,251.3,27a.94.94,0,0,1,.75.87,1.34,1.34,0,0,1-.62.94,6.05,6.05,0,0,0-1.19,1.56c-.37.69-.69,1.31-1.06,1.87h9.49c6.06,0,8.05-.12,8.49-.12.62,0,.69.06.69.62v3.68c0,.69-.06.75-.69.75-.44,0-2.43-.12-8.49-.12h-10.8v3.12h7.87c6,0,8.05-.12,8.43-.12.69,0,.75.06.75.69v3.12c0,.62-.06.69-.75.69-.37,0-2.43-.12-8.43-.12h-7.87V47.5h7.87c6,0,8.05-.12,8.43-.12.69,0,.75.06.75.69v3.06c0,.62-.06.69-.75.69-.37,0-2.43-.12-8.43-.12h-7.87V55h11.36c6.12,0,8.24-.12,8.61-.12.62,0,.69.06.69.69v3.5c0,.69-.06.75-.69.75-.37,0-2.5-.12-8.61-.12h-12l-.19.37a8.3,8.3,0,0,0-.19,2.75v.37H262.6c5.62,0,7.55-.12,7.93-.12.62,0,.69.06.69.62v4c0,.62-.06.69-.69.69-.37,0-2.31-.12-7.93-.12H250.87c5.81,3.87,12.8,6.3,21.6,7.87A12.89,12.89,0,0,0,270,80.28c-.5,1.25-.69,1.69-1.25,1.69a6,6,0,0,1-1.44-.31c-8.49-2.56-15.54-6.24-20.66-11,0,6.93.25,10.55.25,11.86,0,.62-.06.69-.62.69h-5.37c-.56,0-.62-.06-.62-.69,0-1.31.19-4.81.25-11.67-4.93,4.93-12.42,8.43-20.23,10.74a7.32,7.32,0,0,1-1.5.37c-.56,0-.81-.44-1.25-1.62a11.79,11.79,0,0,0-2.25-3.81c8.36-1.87,15.11-4.24,20.72-8.24Zm16.79-28.09V37H229.46v3.12Zm0,7.37V44.38H229.46V47.5Zm0,7.49V51.69H229.46V55Z"/><path class="cls-4" d="M334.88,31.46c5.81,0,7.87-.12,8.24-.12.62,0,.69.06.69.69,0,.37-.12,1.44-.12,3v2.56c0,5.31.13,6.3.13,6.68,0,.62-.06.69-.69.69H338c-.62,0-.69-.06-.69-.69V37H310.79c1.75.31,3.5.81,5.06,1.25.56.19.87.37.87.75s-.31.62-.75.87a4.59,4.59,0,0,0-1.19,1.25l-.5.62h13.23a4,4,0,0,0,1.56-.25,2.68,2.68,0,0,1,.87-.25c.37,0,.94.25,2.5,1.94s1.75,2.12,1.75,2.75-.19.81-.81,1.06a11.06,11.06,0,0,0-2.18,1.81,65.27,65.27,0,0,1-7.68,6.3,95.4,95.4,0,0,0,23.22,5.24A15,15,0,0,0,344.37,65c-.5,1.56-.5,1.56-2.43,1.19q-3.56-.66-6.74-1.5c-.06.75-.12,2.12-.12,4.43V74c0,6.49.13,8.12.13,8.43,0,.62-.06.69-.69.69h-5.06c-.62,0-.69-.06-.69-.69V80.53H306.54v1.81c0,.69-.06.75-.69.75h-5c-.69,0-.75-.06-.75-.75,0-.31.13-1.94.13-8.3V69.79c0-2.12-.06-3.56-.06-4.43-2,.56-4,1.06-6.18,1.56-1.94.44-1.94.44-2.62-1.19A14,14,0,0,0,289,61.8c9.55-1.56,16.92-3.62,23.1-6.49a59.7,59.7,0,0,1-6.68-5.18,58.59,58.59,0,0,1-7.62,4.62,5.3,5.3,0,0,1-1.5.62c-.37,0-.56-.31-1-1a11.25,11.25,0,0,0-3-3.31c7.68-3.43,12.3-6.68,16.11-11.17A17.15,17.15,0,0,0,310.29,37H297.56v7.3c0,.62-.06.69-.69.69h-5.12c-.62,0-.69-.06-.69-.69,0-.44.13-1.37.13-6.68V35.52c0-2.06-.12-3.06-.12-3.5,0-.62.06-.69.69-.69.37,0,2.43.12,8.24.12h13.73v-1a19.53,19.53,0,0,0-.44-4.68c2.19.06,4.56.19,6.68.37.69.06,1,.31,1,.62a2.91,2.91,0,0,1-.37,1.19,7.46,7.46,0,0,0-.31,2.56v.94Zm-3.62,32.21a74.36,74.36,0,0,1-13.42-5.12,74.36,74.36,0,0,1-12,5.12ZM306.54,75.41h22.22V68.73H306.54Zm2.93-28.65a47.1,47.1,0,0,0,8.18,5.56A53.83,53.83,0,0,0,325,46.63H309.6Z"/><path class="cls-1" d="M383.41,47.38c-6.05,1.14-11.36,2.18-16.67,3.28-1.89.45-2.38.55-3.13.79a2.9,2.9,0,0,1-1.09.4,1.16,1.16,0,0,1-.94-.74,34.62,34.62,0,0,1-1.84-5.36,68.42,68.42,0,0,0,7.89-.84c6.1-.89,17-2.53,29.82-4.22.74-.1,1,.2,1,.55a28.38,28.38,0,0,1,.55,4.37c0,.6-.3.74-.94.74A22.14,22.14,0,0,0,392,47.43c-8.44,2.88-12.65,8.68-12.65,14.64,0,6.4,4.57,9.87,13.2,10.42.79,0,1.09.2,1.09.74a17.64,17.64,0,0,1-.55,4.27c-.15.74-.35,1-.94,1-8.73,0-18.31-5-18.31-15.33,0-7,3.52-11.81,9.53-15.73Zm9.82,5.36c.25-.2.45-.15.74.1a22.84,22.84,0,0,1,4.71,5.31.5.5,0,0,1-.15.79l-2.08,1.54a.52.52,0,0,1-.84-.15,24.6,24.6,0,0,0-5-5.76Zm4.42-3.23c.3-.2.45-.15.74.1a20.73,20.73,0,0,1,4.71,5.11.57.57,0,0,1-.15.89l-2,1.54a.51.51,0,0,1-.84-.15,23.5,23.5,0,0,0-5-5.71Z"/><path class="cls-1" d="M426,41a12.61,12.61,0,0,0-1.74-3.18,35.1,35.1,0,0,1,6-.55c.7,0,1.09.4,1.09.89,0,.3-.1.65-.1.94a8.77,8.77,0,0,0,.2,1.49c.35,1.29.5,1.74.79,2.58a77.4,77.4,0,0,0,10.12-2.63c.45-.2.69-.15.84.25.3.94.64,2.33.84,3.32a.76.76,0,0,1-.59.89c-3.33,1-6.35,1.79-9.73,2.53.45,1.24,1.09,2.78,1.74,4.17a58.25,58.25,0,0,0,9-2.58c.5-.25.74-.15.89.3a18.75,18.75,0,0,1,.89,3.27c.1.45.1.69-.4.89A61,61,0,0,1,437.54,56,37,37,0,0,0,444,64.6c.5.45.5.65.25,1.19a14.4,14.4,0,0,1-2,3.08c-.3.35-.5.5-.79.5a1.32,1.32,0,0,1-.69-.3,12.48,12.48,0,0,0-2.93-1.59,24.16,24.16,0,0,0-9.33-1.59c-4.66,0-7.39,1.44-7.39,3.77,0,3.23,4.22,4.27,11.81,4.27,1.84,0,3.67-.2,5.46-.3.5,0,.64.25.6.65a32.28,32.28,0,0,1-1,4.52c-.15.5-.35.69-1,.74q-1.71.15-3.57.15c-11.41,0-17.47-3.23-17.47-9.33,0-5.31,4.57-8.63,12.31-8.63A23,23,0,0,1,436.75,63a57.68,57.68,0,0,1-4.12-5.86A117.24,117.24,0,0,1,419,58.59c-.55,0-.74-.2-.89-.69a25.08,25.08,0,0,1-.89-4.07,86.53,86.53,0,0,0,13.35-1.24c-.5-1-1.24-2.73-1.89-4.12a85.9,85.9,0,0,1-12.06,1.19c-.6,0-.89-.2-1-.69s-.5-2.38-.79-4a87.48,87.48,0,0,0,12.36-.79C426.83,43.06,426.53,42.22,426,41Z"/><path class="cls-1" d="M473.71,56.36a14.93,14.93,0,0,1,7.89-2.23c7.25,0,12.31,4.76,12.31,11.91,0,8.29-6.7,13.6-17.32,13.6-6.25,0-10-2.68-10-7.29,0-3.32,3.13-6.05,7-6.05a9,9,0,0,1,9.33,7.24C486.37,71.94,488,69.76,488,66c0-4.52-3.18-7.49-7.79-7.49-4.12,0-8.68,1.84-12.7,5.26C466,65,464.63,66.48,463.14,68c-.35.35-.6.55-.84.55a1.22,1.22,0,0,1-.74-.45,22.35,22.35,0,0,1-2.93-3.23c-.3-.4-.15-.74.25-1.14a119.48,119.48,0,0,0,11.76-11c3.08-3.18,5.41-5.66,7.69-8.49-3,.55-6.5,1.24-9.58,1.89a15.24,15.24,0,0,0-2.08.6,3.65,3.65,0,0,1-1,.25,1.13,1.13,0,0,1-1.09-.84,23.78,23.78,0,0,1-1.74-5.36,23.92,23.92,0,0,0,4.61.1c3-.3,7.39-.94,11.26-1.69a13.17,13.17,0,0,0,2.73-.74,2.56,2.56,0,0,1,.94-.4,1.77,1.77,0,0,1,1.14.4,18.79,18.79,0,0,1,3.32,3.18,1.72,1.72,0,0,1,.55,1.19,1.31,1.31,0,0,1-.84,1.19,8,8,0,0,0-2.18,1.59c-3.62,3.52-6.95,7-10.72,10.62Zm0,14.14c-1.44,0-2.38.84-2.38,1.89,0,1.54,1.34,2.58,4.32,2.58a10.87,10.87,0,0,0,2.28-.2C477.33,72,475.85,70.5,473.76,70.5Z"/><path class="cls-2" d="M384.41,48.38c-6.05,1.14-11.36,2.18-16.67,3.28-1.89.45-2.38.55-3.13.79a2.9,2.9,0,0,1-1.09.4,1.16,1.16,0,0,1-.94-.74,34.62,34.62,0,0,1-1.84-5.36,68.42,68.42,0,0,0,7.89-.84c6.1-.89,17-2.53,29.82-4.22.74-.1,1,.2,1,.55a28.38,28.38,0,0,1,.55,4.37c0,.6-.3.74-.94.74A22.14,22.14,0,0,0,393,48.43c-8.44,2.88-12.65,8.68-12.65,14.64,0,6.4,4.57,9.87,13.2,10.42.79,0,1.09.2,1.09.74a17.64,17.64,0,0,1-.55,4.27c-.15.74-.35,1-.94,1-8.73,0-18.31-5-18.31-15.33,0-7,3.52-11.81,9.53-15.73Zm9.82,5.36c.25-.2.45-.15.74.1a22.84,22.84,0,0,1,4.71,5.31.5.5,0,0,1-.15.79l-2.08,1.54a.52.52,0,0,1-.84-.15,24.6,24.6,0,0,0-5-5.76Zm4.42-3.23c.3-.2.45-.15.74.1a20.73,20.73,0,0,1,4.71,5.11.57.57,0,0,1-.15.89l-2,1.54a.51.51,0,0,1-.84-.15,23.5,23.5,0,0,0-5-5.71Z"/><path class="cls-2" d="M427,42a12.61,12.61,0,0,0-1.74-3.18,35.1,35.1,0,0,1,6-.55c.7,0,1.09.4,1.09.89,0,.3-.1.65-.1.94a8.77,8.77,0,0,0,.2,1.49c.35,1.29.5,1.74.79,2.58a77.4,77.4,0,0,0,10.12-2.63c.45-.2.69-.15.84.25.3.94.64,2.33.84,3.32a.76.76,0,0,1-.59.89c-3.33,1-6.35,1.79-9.73,2.53.45,1.24,1.09,2.78,1.74,4.17a58.25,58.25,0,0,0,9-2.58c.5-.25.74-.15.89.3a18.75,18.75,0,0,1,.89,3.27c.1.45.1.69-.4.89A61,61,0,0,1,438.54,57,37,37,0,0,0,445,65.6c.5.45.5.65.25,1.19a14.4,14.4,0,0,1-2,3.08c-.3.35-.5.5-.79.5a1.32,1.32,0,0,1-.69-.3,12.48,12.48,0,0,0-2.93-1.59,24.16,24.16,0,0,0-9.33-1.59c-4.66,0-7.39,1.44-7.39,3.77,0,3.23,4.22,4.27,11.81,4.27,1.84,0,3.67-.2,5.46-.3.5,0,.64.25.6.65a32.28,32.28,0,0,1-1,4.52c-.15.5-.35.69-1,.74q-1.71.15-3.57.15c-11.41,0-17.47-3.23-17.47-9.33,0-5.31,4.57-8.63,12.31-8.63A23,23,0,0,1,437.75,64a57.68,57.68,0,0,1-4.12-5.86A117.24,117.24,0,0,1,420,59.59c-.55,0-.74-.2-.89-.69a25.08,25.08,0,0,1-.89-4.07,86.53,86.53,0,0,0,13.35-1.24c-.5-1-1.24-2.73-1.89-4.12a85.9,85.9,0,0,1-12.06,1.19c-.6,0-.89-.2-1-.69s-.5-2.38-.79-4a87.48,87.48,0,0,0,12.36-.79C427.83,44.06,427.53,43.22,427,42Z"/><path class="cls-2" d="M474.71,57.36a14.93,14.93,0,0,1,7.89-2.23c7.25,0,12.31,4.76,12.31,11.91,0,8.29-6.7,13.6-17.32,13.6-6.25,0-10-2.68-10-7.29,0-3.32,3.13-6.05,7-6.05a9,9,0,0,1,9.33,7.24C487.37,72.94,489,70.76,489,67c0-4.52-3.18-7.49-7.79-7.49-4.12,0-8.68,1.84-12.7,5.26C467,66,465.63,67.48,464.14,69c-.35.35-.6.55-.84.55a1.22,1.22,0,0,1-.74-.45,22.35,22.35,0,0,1-2.93-3.23c-.3-.4-.15-.74.25-1.14a119.48,119.48,0,0,0,11.76-11c3.08-3.18,5.41-5.66,7.69-8.49-3,.55-6.5,1.24-9.58,1.89a15.24,15.24,0,0,0-2.08.6,3.65,3.65,0,0,1-1,.25,1.13,1.13,0,0,1-1.09-.84,23.78,23.78,0,0,1-1.74-5.36,23.92,23.92,0,0,0,4.61.1c3-.3,7.39-.94,11.26-1.69a13.17,13.17,0,0,0,2.73-.74,2.56,2.56,0,0,1,.94-.4,1.77,1.77,0,0,1,1.14.4,18.79,18.79,0,0,1,3.32,3.18,1.72,1.72,0,0,1,.55,1.19,1.31,1.31,0,0,1-.84,1.19,8,8,0,0,0-2.18,1.59c-3.62,3.52-6.95,7-10.72,10.62Zm0,14.14c-1.44,0-2.38.84-2.38,1.89,0,1.54,1.34,2.58,4.32,2.58a10.87,10.87,0,0,0,2.28-.2C478.33,73,476.85,71.5,474.76,71.5Z"/><path class="cls-1" d="M2.88,71.5c-.5,0-.55,0-.55-.5s.1-2.38.1-13.45V49.66c0-7.84-.1-10-.1-10.32,0-.5,0-.55.55-.55s1.49.1,5,.1h5.76c3.52,0,4.66-.1,5-.1s.55,0,.55.55c0,.3-.1,2.38-.1,8.88v8.53c0,10.52.1,12.5.1,12.8,0,.5,0,.55-.55.55H14.94c-.55,0-.6,0-.6-.55V67.13h-7V71c0,.5,0,.5-.6.5ZM7.29,43.36v7.24h7V43.36Zm7,19.25V55.07h-7v7.54Zm28.73,5.66c0,2.33.1,4.86.1,6.85s-.35,3.13-1.44,4.07-3.13,1.29-6.65,1.29c-1.54,0-1.54,0-1.89-1.54a13.19,13.19,0,0,0-1.39-3.72c1.69.15,3.32.2,4.27.2,1.54,0,1.94-.45,1.94-1.74V64.15H27.84c-1.24,7.79-4,12-8.83,15.93-.6.5-.89.74-1.19.74s-.55-.3-1.09-.89a13.25,13.25,0,0,0-3-2.48C21.24,72,23.57,67.63,23.57,51v-6.1c0-4.37-.1-6.6-.1-6.95s0-.55.6-.55c.3,0,1.59.1,5.56.1H37c3.92,0,5.26-.1,5.56-.1.55,0,.6,0,.6.55,0,.3-.1,2.58-.1,6.95ZM38,59.59v-6.5H28.68c0,2.38-.15,4.57-.3,6.5ZM28.68,42.12v6.4H38v-6.4Z"/><path class="cls-1" d="M61.13,80.28c-.5,0-.55,0-.55-.55s.1-3.28.1-17.67V52.49c0-9.63-.1-12.65-.1-13,0-.55,0-.6.55-.6s2,.1,6.85.1H85c4.81,0,6.55-.1,6.85-.1.5,0,.55,0,.55.6,0,.3-.1,3.32-.1,11.46V62c0,14.24.1,17.17.1,17.47,0,.5,0,.55-.55.55H87.43c-.5,0-.55,0-.55-.55V77.05H66.09v2.68c0,.5,0,.55-.55.55Zm5-25H86.88V44H66.09ZM86.88,72.14v-12H66.09v12Z"/><path class="cls-1" d="M121.31,43.16a33.72,33.72,0,0,0,.5-5.51,36.31,36.31,0,0,1,6,1.64,1,1,0,0,1,.45,1.74,6.28,6.28,0,0,0-1,1.89c-.65,2-1.14,3.87-1.79,6a37.41,37.41,0,0,1,3.87-.2c4.66,0,7.2,3.18,7.2,9.18s-1,12.36-2.68,15.93c-1.44,3.18-3.82,4.66-6.7,4.66a16.2,16.2,0,0,1-4.91-.55,1.29,1.29,0,0,1-.89-1.39,14.18,14.18,0,0,0-.94-4.61A14.89,14.89,0,0,0,125.83,73c1.64,0,2.38-.6,3.18-2.63A38.23,38.23,0,0,0,130.94,58c0-3.52-.65-4.61-2.83-4.61a32.87,32.87,0,0,0-4.17.35c-3.28,9.53-6.1,16.37-10,23.32a.81.81,0,0,1-1.29.45,22.54,22.54,0,0,1-3.42-2.18,1,1,0,0,1-.4-.74.92.92,0,0,1,.2-.55,104.6,104.6,0,0,0,9.08-19.45c-1.94.3-3.52.6-4.86.84a14.59,14.59,0,0,0-2.73.79,1.09,1.09,0,0,1-1.59-.65,45.22,45.22,0,0,1-1.54-5.11c2.18,0,4.37-.15,6.55-.35s3.92-.45,5.86-.74C120.62,46.59,121,44.85,121.31,43.16Zm20.2,3.32c.35-.2.6-.1.94.25a33.21,33.21,0,0,1,8.24,12.06.71.71,0,0,1-.2,1,20.25,20.25,0,0,1-3.72,2.48c-.5.25-1,.2-1.14-.4A33.59,33.59,0,0,0,137.49,49,42.09,42.09,0,0,1,141.51,46.49Z"/><path class="cls-1" d="M169.93,49.32c.55.25.79.55.79.94a1.48,1.48,0,0,1-.25.74,9.29,9.29,0,0,0-1,2.63,82.67,82.67,0,0,0-1.19,9c4.56-4.61,10.52-7.84,16.57-7.84,7.25,0,11.56,4.22,11.56,10.62,0,5.41-3.23,9-7.49,11.12-3.32,1.69-8.44,2.88-12.7,3.42-1.09.15-1.54.1-2-.65a12.7,12.7,0,0,0-3.37-4.22c5.56-.35,10.32-1.29,13.65-2.78,4-1.74,5.86-4.32,5.86-7.49,0-2.68-1.69-5.11-6-5.11s-9.63,2.83-14.29,7.54A13.55,13.55,0,0,0,168,70c-.3.5-.5.5-1.14.35A34.12,34.12,0,0,1,163.48,69c-.5-.2-.69-.3-.69-1,.3-5.76.94-11.61,1.54-16a31,31,0,0,0,.45-4.47A27.91,27.91,0,0,1,169.93,49.32Zm1.24-12.55a.83.83,0,0,1,.94-.25,32.54,32.54,0,0,1,9.73,5.9c.25.2.35.35.35.55a1.38,1.38,0,0,1-.25.6A32.52,32.52,0,0,1,179.41,47c-.2.25-.4.4-.55.4s-.35-.1-.6-.35a39.58,39.58,0,0,0-10-6.45A27.18,27.18,0,0,1,171.17,36.76Z"/><path class="cls-2" d="M3.88,72.5c-.5,0-.55,0-.55-.5s.1-2.38.1-13.45V50.66c0-7.84-.1-10-.1-10.32,0-.5,0-.55.55-.55s1.49.1,5,.1h5.76c3.52,0,4.66-.1,5-.1s.55,0,.55.55c0,.3-.1,2.38-.1,8.88v8.53c0,10.52.1,12.5.1,12.8,0,.5,0,.55-.55.55H15.94c-.55,0-.6,0-.6-.55V68.13h-7V72c0,.5,0,.5-.6.5ZM8.29,44.36v7.24h7V44.36Zm7,19.25V56.07h-7v7.54Zm28.73,5.66c0,2.33.1,4.86.1,6.85s-.35,3.13-1.44,4.07-3.13,1.29-6.65,1.29c-1.54,0-1.54,0-1.89-1.54a13.19,13.19,0,0,0-1.39-3.72c1.69.15,3.32.2,4.27.2,1.54,0,1.94-.45,1.94-1.74V65.15H28.84c-1.24,7.79-4,12-8.83,15.93-.6.5-.89.74-1.19.74s-.55-.3-1.09-.89a13.25,13.25,0,0,0-3-2.48C22.24,73,24.57,68.63,24.57,52v-6.1c0-4.37-.1-6.6-.1-6.95s0-.55.6-.55c.3,0,1.59.1,5.56.1H38c3.92,0,5.26-.1,5.56-.1.55,0,.6,0,.6.55,0,.3-.1,2.58-.1,6.95ZM39,60.59v-6.5H29.68c0,2.38-.15,4.57-.3,6.5ZM29.68,43.12v6.4H39v-6.4Z"/><path class="cls-2" d="M62.13,81.28c-.5,0-.55,0-.55-.55s.1-3.28.1-17.67V53.49c0-9.63-.1-12.65-.1-13,0-.55,0-.6.55-.6s2,.1,6.85.1H86c4.81,0,6.55-.1,6.85-.1.5,0,.55,0,.55.6,0,.3-.1,3.32-.1,11.46V63c0,14.24.1,17.17.1,17.47,0,.5,0,.55-.55.55H88.43c-.5,0-.55,0-.55-.55V78.05H67.09v2.68c0,.5,0,.55-.55.55Zm5-25H87.88V45H67.09ZM87.88,73.14v-12H67.09v12Z"/><path class="cls-2" d="M122.31,44.16a33.72,33.72,0,0,0,.5-5.51,36.31,36.31,0,0,1,6,1.64,1,1,0,0,1,.45,1.74,6.28,6.28,0,0,0-1,1.89c-.65,2-1.14,3.87-1.79,6a37.41,37.41,0,0,1,3.87-.2c4.66,0,7.2,3.18,7.2,9.18s-1,12.36-2.68,15.93c-1.44,3.18-3.82,4.66-6.7,4.66a16.2,16.2,0,0,1-4.91-.55,1.29,1.29,0,0,1-.89-1.39,14.18,14.18,0,0,0-.94-4.61A14.89,14.89,0,0,0,126.83,74c1.64,0,2.38-.6,3.18-2.63A38.23,38.23,0,0,0,131.94,59c0-3.52-.65-4.61-2.83-4.61a32.87,32.87,0,0,0-4.17.35c-3.28,9.53-6.1,16.37-10,23.32a.81.81,0,0,1-1.29.45,22.54,22.54,0,0,1-3.42-2.18,1,1,0,0,1-.4-.74.92.92,0,0,1,.2-.55,104.6,104.6,0,0,0,9.08-19.45c-1.94.3-3.52.6-4.86.84a14.59,14.59,0,0,0-2.73.79,1.09,1.09,0,0,1-1.59-.65,45.22,45.22,0,0,1-1.54-5.11c2.18,0,4.37-.15,6.55-.35s3.92-.45,5.86-.74C121.62,47.59,122,45.85,122.31,44.16Zm20.2,3.32c.35-.2.6-.1.94.25a33.21,33.21,0,0,1,8.24,12.06.71.71,0,0,1-.2,1,20.25,20.25,0,0,1-3.72,2.48c-.5.25-1,.2-1.14-.4A33.59,33.59,0,0,0,138.49,50,42.09,42.09,0,0,1,142.51,47.49Z"/><path class="cls-2" d="M170.93,50.32c.55.25.79.55.79.94a1.48,1.48,0,0,1-.25.74,9.29,9.29,0,0,0-1,2.63,82.67,82.67,0,0,0-1.19,9c4.56-4.61,10.52-7.84,16.57-7.84,7.25,0,11.56,4.22,11.56,10.62,0,5.41-3.23,9-7.49,11.12-3.32,1.69-8.44,2.88-12.7,3.42-1.09.15-1.54.1-2-.65a12.7,12.7,0,0,0-3.37-4.22c5.56-.35,10.32-1.29,13.65-2.78,4-1.74,5.86-4.32,5.86-7.49,0-2.68-1.69-5.11-6-5.11s-9.63,2.83-14.29,7.54A13.55,13.55,0,0,0,169,71c-.3.5-.5.5-1.14.35A34.12,34.12,0,0,1,164.48,70c-.5-.2-.69-.3-.69-1,.3-5.76.94-11.61,1.54-16a31,31,0,0,0,.45-4.47A27.91,27.91,0,0,1,170.93,50.32Zm1.24-12.55a.83.83,0,0,1,.94-.25,32.54,32.54,0,0,1,9.73,5.9c.25.2.35.35.35.55a1.38,1.38,0,0,1-.25.6A32.52,32.52,0,0,1,180.41,48c-.2.25-.4.4-.55.4s-.35-.1-.6-.35a39.58,39.58,0,0,0-10-6.45A27.18,27.18,0,0,1,172.17,37.76Z"/><g class="cls-3"><polygon points="246.27 3.08 239.87 1 246.27 13.8 252.67 1 246.27 3.08"/><polygon points="247.27 4.08 240.87 2 247.27 14.8 253.67 2 247.27 4.08"/></g><polygon class="cls-1" points="245.27 2.08 238.87 0 245.27 12.8 251.67 0 245.27 2.08"/><polygon class="cls-4" points="246.27 3.08 239.87 1 246.27 13.8 252.67 1 246.27 3.08"/><g class="cls-3"><polygon points="316.7 3.08 310.3 1 316.7 13.8 323.1 1 316.7 3.08"/><polygon points="317.7 4.08 311.3 2 317.7 14.8 324.1 2 317.7 4.08"/></g><polygon class="cls-1" points="315.7 2.08 309.3 0 315.7 12.8 322.1 0 315.7 2.08"/><polygon class="cls-4" points="316.7 3.08 310.3 1 316.7 13.8 323.1 1 316.7 3.08"/></g></g></svg>